<svg width="700" height="648" viewBox="0 0 700 648" fill="none" xmlns="http://www.w3.org/2000/svg">
<rect width="700" height="647" transform="translate(0 0.0344543)" fill="white"/>
<path fill-rule="evenodd" clip-rule="evenodd" d="M140.072 314.509C140.072 314.509 119.325 298.127 148.432 241.567C177.539 185.006 236.486 197.403 274.165 175.156C329.837 142.285 307.018 116.56 376.437 112.414C463.84 107.193 468.79 191.561 512.519 191.561C515.395 191.561 583.489 166.272 593.456 235.503C598.476 270.369 512.519 323.536 512.519 323.536C512.519 323.536 476.744 353.508 474.78 368.308C466.54 430.378 483.722 501.468 291.173 534.195C266.271 538.428 224.921 523.118 202.108 494.836C184.236 472.679 112.543 488.399 105.851 415.554C102.478 378.839 140.072 314.509 140.072 314.509Z" fill="#FF8800"/>
<path d="M268.507 265.297C269.157 264.943 269.994 265.142 270.377 265.742L271.922 268.152C278.059 277.669 280.514 280.759 283.122 282.156C285.267 283.304 287.484 282.948 291.542 280.748L292.084 280.447C294.636 278.977 306.316 271.561 310.832 268.898C311.468 268.524 312.312 268.696 312.717 269.284C313.123 269.871 312.936 270.651 312.3 271.026L311.605 271.439C306.573 274.455 295.269 281.63 293.267 282.736C288.354 285.452 285.168 286.062 281.976 284.455L281.754 284.34C278.324 282.503 275.657 278.98 268.025 267.025C267.642 266.424 267.858 265.651 268.507 265.297Z" fill="white"/>
<path d="M290.616 279.882C291.363 279.79 292.05 280.275 292.15 280.965C292.615 284.175 293.729 287.394 295.497 290.625C295.837 291.246 295.568 292.006 294.895 292.32C294.222 292.635 293.401 292.385 293.06 291.764C291.158 288.287 289.95 284.798 289.444 281.3C289.344 280.609 289.869 279.974 290.616 279.882Z" fill="white"/>
<path fill-rule="evenodd" clip-rule="evenodd" d="M449.66 356.952C449.439 357.467 448.957 358.18 448.396 358.855L448.879 359.318L449.439 359.869L449.564 359.98C449.618 360.024 449.661 360.052 449.692 360.059C449.873 360.083 449.999 360.237 449.975 360.406C449.949 360.571 449.782 360.69 449.601 360.666C449.437 360.662 448.841 360.447 448.131 359.914C448.003 359.818 447.875 359.706 447.745 359.584C447.335 360.006 446.921 360.369 446.564 360.595C446.038 360.93 445.582 360.957 445.365 360.821C445.151 360.689 444.945 360.244 445.294 359.346C445.348 359.184 445.536 359.098 445.709 359.149C445.883 359.2 445.978 359.371 445.924 359.533C445.871 359.7 445.864 359.852 445.863 359.974L446.065 359.847C446.136 359.799 446.209 359.746 446.276 359.684C446.52 359.462 446.792 359.192 447.066 358.9C446.633 358.435 446.191 357.888 445.834 357.258C445.66 356.95 445.521 356.624 445.389 356.28C445.298 356.089 445.392 355.863 445.6 355.779C445.808 355.694 446.051 355.782 446.143 355.973C446.54 356.744 447.049 357.408 447.55 357.976L447.717 358.162C448.174 357.609 448.567 357.05 448.745 356.624C448.844 356.392 449.128 356.276 449.38 356.365C449.634 356.458 449.759 356.72 449.66 356.952Z" fill="white"/>
<path fill-rule="evenodd" clip-rule="evenodd" d="M246.528 197.766L245.696 197.627C241.049 196.829 237.486 195.849 230.831 193.716C230.067 193.471 229.663 192.701 229.928 191.996C230.192 191.29 231.026 190.916 231.789 191.161L233.448 191.689C239.286 193.53 242.562 194.375 247.036 195.104C262.09 197.557 273.361 190.414 274.284 176.789C274.334 176.044 275.028 175.478 275.835 175.525C276.641 175.571 277.254 176.213 277.203 176.958C276.166 192.281 263.218 200.487 246.528 197.766Z" fill="#00160A"/>
<path fill-rule="evenodd" clip-rule="evenodd" d="M284.143 212.357L284.983 214.082L286.898 214.59C287.002 214.617 287.062 214.717 287.032 214.813C287.023 214.842 287.005 214.869 286.982 214.891L285.527 216.23L285.609 218.156C285.613 218.255 285.529 218.339 285.421 218.343C285.385 218.344 285.349 218.336 285.317 218.32L283.67 217.453C283.619 217.426 283.557 217.422 283.502 217.442L281.74 218.088C281.64 218.125 281.527 218.08 281.487 217.987C281.474 217.956 281.47 217.922 281.476 217.889L281.847 215.992L280.608 214.479C280.543 214.4 280.56 214.287 280.646 214.227C280.672 214.208 280.704 214.196 280.736 214.192L282.709 213.935L283.801 212.335C283.858 212.25 283.978 212.225 284.07 212.278C284.102 212.297 284.128 212.324 284.143 212.357Z" fill="#00160A"/>
<path d="M476.55 168.995C477.302 168.945 477.955 169.469 478.009 170.164C478.062 170.859 477.496 171.463 476.744 171.512C471.357 171.867 467.126 173.797 465.247 178.57C465.134 178.857 465.04 179.135 464.964 179.398L464.913 179.579L464.996 179.42C467.362 174.954 471.926 171.851 477.215 171.063L477.561 171.015C478.308 170.919 478.998 171.4 479.102 172.091C479.206 172.781 478.685 173.418 477.939 173.515C473.025 174.149 468.822 177.167 466.988 181.496L466.87 181.787C465.998 183.999 463.907 185.061 462.56 183.167C461.739 182.012 461.793 179.961 462.681 177.707C464.932 171.99 470.098 169.42 476.55 168.995Z" fill="white"/>
<path d="M470.331 159.594C471.084 159.545 471.737 160.068 471.79 160.763C471.844 161.458 471.278 162.062 470.526 162.112C461.956 162.677 454.442 167.82 451.452 175.413C450.566 177.664 450.401 179.588 450.719 180.563L450.757 180.671L450.818 180.591C450.97 180.377 451.142 180.07 451.31 179.672L451.382 179.496C454.54 171.476 462.197 165.86 471.178 164.701C471.925 164.605 472.614 165.086 472.719 165.776C472.823 166.467 472.302 167.104 471.555 167.201C463.699 168.214 456.984 173.06 454.091 180.004L453.948 180.359C452.777 183.333 450.244 184.618 448.625 182.341C447.516 180.78 447.593 177.834 448.887 174.55C452.248 166.013 460.697 160.23 470.331 159.594Z" fill="white"/>
<path d="M461.952 147.06C462.704 147.011 463.357 147.534 463.411 148.229C463.464 148.924 462.898 149.528 462.146 149.578C449.924 150.383 439.206 157.72 434.942 168.549C433.491 172.235 433.37 175.358 434.162 176.657L434.234 176.766C434.352 176.932 434.312 176.936 434.343 176.914L434.361 176.903C434.762 176.699 435.293 176.005 435.777 174.854L435.873 174.617C440.228 163.557 450.788 155.811 463.175 154.213C463.921 154.117 464.611 154.598 464.715 155.288C464.82 155.978 464.299 156.616 463.552 156.712C452.305 158.163 442.698 165.122 438.598 175.086L438.439 175.48C436.923 179.328 433.885 180.87 431.953 178.152C430.512 176.126 430.617 172.153 432.376 167.686C437.012 155.913 448.665 147.936 461.952 147.06Z" fill="white"/>
<path d="M446.992 135.281C447.732 135.147 448.449 135.592 448.594 136.276C448.739 136.96 448.256 137.623 447.516 137.757C436.452 139.76 427.554 147.571 424.973 157.904C424.099 161.4 424.363 164.244 425.221 165.328L425.334 165.464L425.343 165.483L425.359 165.472C425.666 165.216 426.025 164.562 426.303 163.548L426.362 163.325C429.016 152.699 437.781 144.473 448.977 141.711C449.705 141.531 450.453 141.931 450.648 142.605C450.842 143.278 450.409 143.969 449.681 144.149C439.594 146.638 431.669 153.978 429.126 163.49L429.022 163.893C428.086 167.641 425.398 169.43 423.221 167.057C421.628 165.322 421.237 161.64 422.312 157.336C425.138 146.025 434.879 137.473 446.992 135.281Z" fill="white"/>
<path d="M295.659 290.903L296.447 290.638C303.896 288.167 310.18 287.077 311.777 288.578C313.177 289.895 314.424 292.279 315.607 295.776C315.832 296.441 315.431 297.149 314.711 297.357C313.992 297.565 313.226 297.194 313.001 296.529C311.978 293.505 310.935 291.469 309.948 290.463L309.907 290.424L309.872 290.425C309.685 290.39 309.405 290.372 309.048 290.379C308.261 290.393 307.186 290.521 305.901 290.756C303.259 291.24 299.92 292.14 296.604 293.27C291.06 295.161 286.44 297.382 283.889 299.388C282.952 300.125 281.242 298.073 282.888 296.898C285.849 294.783 290.341 292.716 295.659 290.903Z" fill="white"/>
<path d="M291.911 267.065C291.911 271.274 296.726 275.831 297.751 276.09C298.478 276.274 285.949 283.82 285.949 283.82C281.422 284.37 278.764 280.834 278.764 275.565C278.764 274.868 291.911 266.368 291.911 267.065Z" fill="white"/>
<path fill-rule="evenodd" clip-rule="evenodd" d="M277.137 269.277C278.723 268.992 279.8 267.771 279.544 266.549C279.287 265.328 277.793 264.568 276.207 264.853C274.621 265.138 273.543 266.36 273.8 267.581C274.057 268.803 275.551 269.562 277.137 269.277Z" fill="#FFB61D"/>
<path d="M438.734 128.283C439.477 128.164 440.184 128.623 440.313 129.31C440.443 129.997 439.945 130.65 439.202 130.77C435.67 131.338 432.107 133.315 428.434 136.458C423.665 140.54 420.515 146.181 418.778 153.701C417.378 159.76 418.67 167.331 422.328 173.987C426.489 181.559 433.852 183.431 442.436 184.88C451.248 186.367 453.683 185.449 462.01 182.713L462.776 182.455C463.914 182.057 469.235 180.133 470.514 179.775C473.207 179.022 475.043 179.085 476.375 180.397C476.891 180.905 476.863 181.704 476.313 182.181C475.798 182.628 475.006 182.633 474.484 182.213L474.384 182.124C473.991 181.737 473.179 181.692 471.544 182.125L471.305 182.191C470.074 182.534 464.304 184.628 463.557 184.88C454.563 187.914 451.513 188.978 441.945 187.362C432.464 185.762 424.42 183.365 419.893 175.13C415.96 167.973 414.574 159.815 416.108 153.174C417.961 145.148 421.395 139.044 426.579 134.607C430.638 131.133 434.681 128.936 438.734 128.283Z" fill="white"/>
<path d="M502.956 228.686C495.174 228.318 489.045 233.874 488.981 241.332C488.927 247.615 492.756 252.789 498.016 253.792C500.143 254.197 504.227 253.71 507.256 252.139C511.856 249.859 515.372 245.172 515.816 241.178C516.538 234.672 510.839 229.059 502.956 228.686Z" fill="white"/>
<path d="M361.931 227.372C364.416 232.013 368.277 242.732 366.607 242.68C361.969 242.537 355.765 235.949 351.424 227.041L351.082 226.325C347.293 218.238 345.023 213.157 347.658 212.183C350.384 211.177 356.8 217.794 361.931 227.372Z" fill="white"/>
<path fill-rule="evenodd" clip-rule="evenodd" d="M347.658 212.082C350.384 211.076 356.894 217.391 362.025 226.969C364.511 231.609 366.197 236.061 366.637 239.254C366.637 239.254 358.242 222.903 353.121 216.915C351.154 214.614 347.658 212.082 347.658 212.082Z" fill="#E7EAEE"/>
<path d="M346.228 253.259C346.428 252.587 347.18 252.192 347.907 252.377C348.634 252.562 349.061 253.256 348.861 253.928C348.604 254.793 344.988 257.06 337.098 261.555L332.117 264.372C322.286 269.904 315.725 273.444 314.905 273.444C309.477 273.444 304.585 268.711 301.014 261.243C297.896 254.722 296.277 246.96 297.008 241.873C297.236 240.285 302.959 236.176 311.795 230.669L313.061 229.885C320.878 225.072 327.56 221.502 329.977 221.051C330.717 220.913 331.437 221.355 331.586 222.039C331.679 222.466 310.131 239.254 308.027 250.396C306.601 257.94 311.989 270.799 314.664 270.915L314.905 270.921C314.688 270.921 314.758 270.874 314.783 270.86L315.029 270.743C315.21 270.655 315.426 270.548 315.674 270.422L316.81 269.835C317.244 269.607 317.729 269.351 318.258 269.068L319.613 268.341C322.2 266.945 325.427 265.167 328.719 263.326L331.85 261.567C335.658 259.417 339.098 257.434 341.683 255.895L343.015 255.095C343.84 254.595 344.537 254.162 345.094 253.803L345.296 253.672C345.604 253.472 345.859 253.3 346.058 253.158C346.058 253.158 346.283 253.076 346.228 253.259Z" fill="white"/>
<path fill-rule="evenodd" clip-rule="evenodd" d="M348.935 228.078C345.636 221.308 344.178 215.103 345.283 211.347C343.287 211.933 340.792 212.987 338.315 214.3C335.022 216.046 332.409 217.997 332.348 218.421C331.712 222.849 334.154 231.465 338.213 239.145C342.555 247.361 347.721 252.637 351.72 252.637C352.102 252.637 353.198 252.429 354.296 252.074C355.858 251.57 357.322 250.835 358.521 249.872C359.117 249.394 359.734 248.852 360.378 248.249L361.155 247.507C361.613 247.059 362.085 246.577 362.823 245.814L363.85 244.753L363.895 244.708C358.751 242.971 353.371 236.847 349.346 228.905L348.935 228.078ZM329.642 218.089C330.066 215.135 342.032 208.749 347.493 208.336C347.722 208.204 347.966 208.089 348.227 207.993C352.956 206.246 360.162 213.728 365.942 224.256L366.338 224.986C368.947 229.857 370.727 234.556 371.212 238.072C371.792 242.272 370.476 245.057 367.026 245.2C366.933 245.531 366.7 245.808 366.389 245.975L366.336 246L366.202 246.124C366.066 246.253 365.907 246.412 365.661 246.665L363.965 248.415C363.349 249.042 362.913 249.467 362.322 250.021C361.631 250.668 360.964 251.253 360.311 251.777C357.669 253.899 353.761 255.161 351.72 255.161C350.637 255.161 349.542 254.928 348.445 254.484C347.274 255.614 343.667 257.812 337.098 261.555L332.117 264.372C322.286 269.904 315.725 273.444 314.905 273.444C313.046 273.444 311.25 272.889 309.548 271.859C309.533 271.869 309.517 271.879 309.5 271.889L308.805 272.302C306.387 273.751 302.522 276.16 298.936 278.395L298.935 278.395L298.932 278.397L298.932 278.397L298.931 278.398L298.928 278.4L298.925 278.402L298.924 278.402L298.707 278.537C299.171 281.602 300.227 284.674 301.879 287.757C307.742 286.081 312.387 285.515 313.727 286.776C315.127 288.092 316.374 290.477 317.557 293.974C317.782 294.639 317.381 295.346 316.661 295.554C315.942 295.762 315.176 295.392 314.951 294.726C313.928 291.702 312.885 289.667 311.898 288.66L311.857 288.621L311.822 288.623C311.635 288.587 311.355 288.57 310.998 288.576C310.211 288.59 309.136 288.718 307.851 288.954C305.21 289.437 301.87 290.337 298.554 291.468C290.974 294.052 285.124 297.255 283.921 299.682C283.569 300.392 283.614 301.432 284.035 303.024L284.113 303.31C284.177 303.536 284.242 303.759 284.329 304.042L284.822 305.655C284.842 305.725 284.862 305.797 284.888 305.888C285.077 306.563 284.639 307.252 283.91 307.427C283.18 307.602 282.435 307.197 282.245 306.522L282.003 305.706L281.599 304.389C281.553 304.234 281.511 304.09 281.47 303.944C280.831 301.664 280.728 300.066 281.439 298.631C282.644 296.198 286.415 293.678 291.665 291.386L290.523 288.66L290.241 287.97C289.809 286.895 289.306 285.437 288.997 284.374C284.895 286.417 282.038 286.759 279.176 285.318L278.954 285.202C278.388 284.899 277.842 284.55 277.292 284.125L261.292 293.107C261.44 293.403 261.591 293.702 261.743 294.003C262.46 295.426 261.194 296.434 259.252 297.218L259.043 297.3C257.373 297.939 255.867 298.086 254.97 297.176C251.25 293.401 247.311 284.372 249.43 282.307C249.837 281.91 250.911 281.32 252.942 280.335L253.104 280.257C253.145 280.231 253.189 280.206 253.234 280.183L268.191 272.694C268.225 272.676 268.26 272.661 268.295 272.647C267.371 271.235 266.359 269.663 265.239 267.909C265.068 267.654 265.005 267.355 265.049 267.067C265.094 266.783 265.242 266.514 265.481 266.313C268.556 263.618 272.746 260.808 278.002 257.781L278.639 257.416C280.914 256.12 285.527 253.688 289.447 251.622C292.487 250.019 295.11 248.636 295.9 248.175L296.091 248.058C296.376 247.864 296.716 247.789 297.042 247.821C296.783 245.632 296.76 243.599 297.008 241.873C297.236 240.285 302.959 236.176 311.795 230.669L313.061 229.885C320.467 225.325 326.854 221.881 329.561 221.148C329.488 220.018 329.512 218.989 329.642 218.089ZM329.86 223.707C327.208 224.603 320.568 228.247 313.322 232.762L312.161 233.489C308.9 235.546 305.888 237.551 303.612 239.185L302.98 239.644C301.965 240.387 301.143 241.028 300.547 241.542C300.248 241.8 300.013 242.021 299.846 242.196L299.73 242.323C299.705 242.347 299.698 242.338 299.708 242.258L299.715 242.205C299.712 242.226 299.709 242.243 299.708 242.258L299.671 242.529C298.359 253.178 306.69 270.569 314.664 270.915L314.851 270.919C314.867 270.92 314.885 270.921 314.905 270.921L314.851 270.919C314.701 270.912 314.76 270.872 314.783 270.86L315.029 270.743C315.21 270.655 315.426 270.548 315.674 270.422L316.81 269.835C317.244 269.607 317.729 269.351 318.258 269.068L319.613 268.341C322.2 266.945 325.427 265.168 328.719 263.326L331.85 261.567C335.658 259.417 339.098 257.434 341.683 255.895L343.015 255.095C343.84 254.595 344.537 254.162 345.094 253.803L345.296 253.672C345.591 253.48 345.839 253.314 346.034 253.175C342.518 250.79 339.055 246.385 335.981 240.668L335.76 240.253C332.798 234.647 330.655 228.577 329.86 223.707ZM297.419 250.268C296.434 250.841 293.528 252.374 290.295 254.081L290.295 254.081L290.295 254.081L290.294 254.081C286.463 256.103 282.172 258.368 280.072 259.565C275.11 262.392 271.109 265.013 268.138 267.481L269.122 269.015C273.427 275.691 275.92 279.205 277.926 281.19C277.26 279.729 276.915 277.875 276.915 275.551C276.915 275.444 276.929 275.34 276.956 275.241C276.824 274.757 277.01 274.226 277.472 273.913L278.401 273.274C278.955 272.888 279.863 272.246 280.897 271.516L280.901 271.513L280.913 271.505L280.917 271.502L280.92 271.499L280.921 271.499L280.922 271.499C283.205 269.886 286.089 267.849 287.118 267.167C290.355 265.024 292.742 263.821 294.915 263.404C295.952 263.204 296.759 263.772 296.993 264.651L297.031 264.811C297.085 265.072 297.095 265.329 297.094 265.891L297.093 266.069C297.082 268.169 297.307 269.381 298.269 270.78C298.928 271.738 299.895 272.612 301.243 273.395C301.384 273.477 301.503 273.579 301.599 273.694C303.774 272.344 305.81 271.089 307.313 270.189C304.945 268.07 302.812 265.003 301.014 261.243C299.339 257.74 298.097 253.879 297.419 250.268ZM368.504 238.391C368.064 235.198 366.377 230.747 363.892 226.106C358.761 216.528 351.965 209.33 349.24 210.336C346.605 211.31 347.292 218.238 351.082 226.325L351.424 227.041C355.765 235.949 361.969 242.537 366.607 242.68C368.277 242.732 368.929 241.471 368.504 238.391ZM269.706 274.78C272.074 278.319 273.804 280.657 275.312 282.284L260.143 290.799C258.59 287.651 257.2 284.72 255.851 281.743L269.491 274.913C269.569 274.874 269.64 274.829 269.706 274.78ZM299.261 288.553C297.789 285.74 296.772 282.918 296.213 280.09C294.253 281.31 292.547 282.365 291.451 283.024C291.639 283.894 292.337 285.96 292.938 287.43L294.059 290.095L294.165 290.356C295.266 289.926 296.417 289.507 297.609 289.1L298.398 288.835C298.687 288.739 298.975 288.645 299.261 288.553ZM299.212 275.179C297.814 274.283 296.741 273.264 295.965 272.134C294.707 270.305 294.377 268.743 294.363 266.384L294.362 266.173L294.169 266.239C292.785 266.736 291.133 267.634 289.058 268.989L288.708 269.219C287.72 269.873 284.907 271.86 282.639 273.462L282.639 273.462L282.635 273.465C281.375 274.354 280.284 275.125 279.767 275.483L279.645 275.566C279.648 279.764 280.781 281.691 282.89 282.625L283.058 282.697C283.561 282.902 283.92 283.006 284.944 283.265C284.965 283.27 284.985 283.276 285.005 283.282C286.068 282.951 287.286 282.4 288.742 281.611L289.284 281.31C290.485 280.618 293.708 278.609 297.254 276.399L297.257 276.397L297.258 276.396L297.261 276.395L297.261 276.394C297.904 275.994 298.557 275.586 299.212 275.179ZM253.438 282.95L253.647 283.41C255.097 286.588 256.604 289.735 258.314 293.167L258.979 294.499C258.761 294.634 258.475 294.778 258.159 294.905C257.707 295.088 257.247 295.216 256.902 295.259L256.792 295.269L256.626 295.085C255.333 293.614 253.833 291.116 252.749 288.631C252.172 287.308 251.761 286.094 251.576 285.161C251.5 284.781 251.465 284.462 251.468 284.22L251.476 284.06C251.479 284.021 251.479 284.001 251.468 283.998L251.509 283.973C251.74 283.826 252.33 283.507 253.206 283.067L253.438 282.95ZM272.27 280.17C271.742 279.673 270.878 279.665 270.34 280.153C269.393 281.011 268.066 281.811 265.749 283L263.391 284.209C262.768 284.537 262.257 284.82 261.795 285.097C261.409 285.329 261.064 285.552 260.754 285.774C260.158 286.2 260.048 286.992 260.509 287.544C260.97 288.095 261.827 288.197 262.424 287.771C262.67 287.595 262.955 287.41 263.281 287.215C263.583 287.034 263.914 286.846 264.298 286.639L265.05 286.241L267.445 285.015C269.747 283.821 271.133 282.968 272.252 281.955C272.79 281.467 272.798 280.668 272.27 280.17Z" fill="#00160A"/>
<path d="M241.733 408.309C248.56 443.489 274.147 469.937 306.798 476.172C312.791 477.317 323.169 477.467 333.916 476.182C347.762 474.525 361.237 470.726 373.088 464.568C405.643 448.396 430.346 415.391 433.548 386.498C436.361 361.118 425.871 337.672 406.881 320.946C406.881 320.946 347.226 348.028 317.943 363.422C292.461 376.816 241.733 408.309 241.733 408.309Z" fill="white"/>
<path d="M380.661 303.398C368.424 297.818 353.094 293.41 338.061 292.7C282.926 290.094 239.564 330.804 239.112 383.313C239.112 383.313 300.648 347.085 332.617 329.606C348.522 320.91 380.661 303.398 380.661 303.398Z" fill="white"/>
<path fill-rule="evenodd" clip-rule="evenodd" d="M494.065 276.637C493.879 285.41 483.835 300.012 467.69 316.536C455.994 328.505 442.385 340.075 430.974 347.872L430.264 348.352L430.735 350.29C433.51 361.531 437.133 373.75 435.764 386.073C432.442 415.983 407.131 449.726 373.684 466.305C361.485 472.631 347.618 476.532 333.394 478.23L332.038 478.385C321.433 479.539 311.284 479.348 305.082 478.166C281.008 473.578 260.627 458.025 248.305 435.513C248.264 435.438 248.231 435.36 248.207 435.281C246.585 436.137 244.403 437.093 243.406 437.405L240.675 438.258C211.245 447.407 182.068 455.062 170.149 450.285C165.612 448.466 164.061 444.968 165.958 440.269C167.802 435.702 172.916 429.817 181.494 422.494L181.966 422.093C190.095 415.206 208.147 402.62 236.123 384.337L236.13 384.001C237.495 329.824 283.025 288.523 340.255 291.894C357.76 292.926 371.7 298.675 378.663 302.206L381.725 300.687C410.444 286.494 433.487 276.517 451.068 270.545C479.982 260.725 494.281 265.316 494.065 276.637ZM452.01 276.365C419.679 287.346 368.584 312.043 297.444 351.77L295.282 352.978C239.888 383.973 203.207 407.52 183.811 423.954L182.855 424.77L181.948 425.555C167.389 438.27 164.808 445.393 171.235 447.969C182.238 452.38 211.787 444.944 240.723 436.172L243.406 435.354C245.986 434.564 247.698 434.111 248.757 433.901C248.803 433.87 248.854 433.843 248.907 433.818C249.269 433.649 249.674 433.642 250.024 433.77C250.1 433.783 250.149 433.805 250.175 433.835C250.411 433.953 250.611 434.136 250.741 434.374C262.703 456.227 282.414 469.544 305.633 473.969C311.66 475.117 321.829 475.286 332.409 474.076L333.045 474.002C346.941 472.343 360.475 470.26 372.37 464.093C405.056 447.891 429.82 414.876 433.048 385.816C434.427 373.396 432.667 361.205 427.987 349.858C427.601 350.108 427.218 350.352 426.838 350.592C426.119 351.045 426.387 350.311 427.642 348.392C427.709 348.141 427.858 347.913 428.073 347.742L428.459 347.176C428.595 346.979 428.737 346.774 428.886 346.56L430.504 345.299C445.755 333.377 457.474 323.225 465.663 314.844L466.598 313.883C481.75 298.21 491.169 284.366 491.324 276.591C491.495 268.061 479.319 267.089 452.01 276.365ZM314.923 435.941C318.586 446.289 313.045 452.944 303.29 453.288C294.277 453.606 286.07 448.356 286.488 440.897C286.849 434.45 291.625 427.558 297.505 425.027C304.616 421.966 311.29 425.68 314.923 435.941ZM298.946 427.887C294.241 429.912 290.194 435.752 289.896 441.06C289.6 446.347 295.922 450.391 303.16 450.136C310.727 449.869 314.611 445.204 311.679 436.922C308.627 428.3 303.986 425.717 298.946 427.887ZM389.397 414.855C394.071 423.018 392.847 431.037 385.661 434.632L385.459 434.73L385.355 434.826C375.718 443.647 363.678 444.717 355.827 438.323L355.558 438.1C346.514 430.443 348.669 417.287 363.06 406.975C372.321 400.338 383.633 404.788 389.397 414.855ZM364.852 409.111C351.788 418.474 349.951 429.686 357.534 436.106C362.973 440.711 371.008 440.966 378.513 436.496L378.66 436.406L378.605 436.396C378.085 436.269 377.668 435.881 377.55 435.376L377.527 435.248C377.432 434.506 378.005 433.834 378.807 433.746C380.642 433.545 382.235 433.136 383.585 432.549L383.769 432.467L383.993 432.253C384.874 431.396 385.734 430.464 386.567 429.455L386.844 429.117C387.156 428.729 387.65 428.541 388.136 428.577L388.173 428.581L388.193 428.547C389.945 425.346 389.53 421.009 386.965 416.392L386.811 416.12C381.799 407.366 372.431 403.68 364.852 409.111ZM451.848 312.082C451.096 314.551 448.808 317.939 445.301 321.951C439.186 328.945 430.001 337.085 421.973 342.651L423.754 340.841C423.736 340.826 423.722 340.807 423.709 340.785L423.094 339.742C419.076 332.964 414.6 326.278 407.367 320.827C388.643 327.963 367.175 337.716 347.615 347.915L341.204 351.264C293.991 375.984 269.151 390.783 242.589 408.976C243.591 413.15 244.854 417.222 246.367 421.168C246.605 421.787 243.503 424.104 242.935 423.818C237.636 427.1 229.338 429.483 224.614 429.607C220.01 429.728 217.35 428.006 218.721 424.571C219.867 421.697 224.185 417.599 231.956 412.107L232.842 411.486L234.633 410.242C263.879 390.004 292.832 373.581 346.273 345.717L348.51 344.557C385.164 325.646 427.609 308.609 447.051 307.037C451.047 306.714 452.86 308.758 451.848 312.082ZM239.032 411.425L232.904 415.698C227.438 419.529 223.497 422.363 221.368 424.18L221.212 424.315C218.614 426.568 221.555 427.163 224.537 427.085C229.053 426.966 235.973 423.8 241.83 420.919C240.747 417.82 239.813 414.651 239.032 411.425ZM334.879 397.724C335.61 397.895 336.052 398.582 335.867 399.257C335.681 399.933 334.938 400.341 334.208 400.17C330.536 399.308 328.368 399.639 327.664 400.553C327.197 401.159 327.456 402.192 328.329 402.852C329.011 403.368 329.919 403.615 330.544 403.489C331.087 403.38 331.392 402.992 331.392 402.023C331.392 401.326 332.003 400.762 332.757 400.762C333.511 400.762 334.122 401.326 334.122 402.023C334.122 404.13 332.982 405.581 331.125 405.955C329.632 406.255 327.893 405.783 326.6 404.806C324.692 403.363 324.068 400.871 325.44 399.089C326.943 397.137 330.238 396.634 334.879 397.724ZM274.911 393.091C277.017 393.674 277.923 395.169 278.209 397.41L278.238 397.653L278.272 398.022C278.277 398.084 278.282 398.147 278.286 398.214L278.358 399.495L278.38 399.784C278.391 399.911 278.403 400.014 278.417 400.106L278.453 400.299L278.476 400.384L278.514 400.415C278.935 400.797 279.047 401.395 278.774 401.888L278.705 402C278.296 402.586 277.451 402.755 276.817 402.377C275.946 401.857 275.747 401.322 275.642 399.787L275.555 398.285C275.545 398.149 275.534 398.032 275.52 397.899C275.365 396.429 274.977 395.744 274.128 395.509C271.743 394.849 270.374 395.523 269.941 396.996C269.555 398.309 270.114 399.688 271.092 400.072L271.34 400.157C271.979 400.409 272.318 401.075 272.102 401.7C271.873 402.364 271.105 402.73 270.387 402.519C267.787 401.752 266.552 398.898 267.306 396.334C268.148 393.472 271.076 392.029 274.911 393.091ZM373.404 373.77C377.185 378.682 376.482 384.933 370.416 387.761C369.743 388.075 368.922 387.825 368.583 387.203C368.243 386.581 368.513 385.822 369.187 385.508C373.578 383.46 374.079 379.001 371.179 375.233C368.362 371.572 364.44 371.169 361.745 375.125C358.888 379.319 359.096 381.781 361.153 382.889C362.786 383.769 365.415 383.584 366.138 382.865L366.208 382.786C366.646 382.218 367.498 382.085 368.112 382.49C368.726 382.894 368.87 383.682 368.433 384.249C366.915 386.22 362.584 386.582 359.777 385.069C356.185 383.133 355.841 379.056 359.435 373.78C363.283 368.131 369.561 368.776 373.404 373.77ZM316.803 366.535C317.513 366.535 318.096 367.035 318.162 367.675L318.169 367.796C318.169 368.019 318.392 368.267 319.193 368.81L319.951 369.313C320.778 369.87 321.176 370.215 321.553 370.766C322.413 372.024 322.901 373.304 322.901 374.81C322.901 378.667 316.633 383.912 309.792 386.246C301.59 389.044 294.871 386.969 293.042 379.19C292.882 378.509 293.35 377.837 294.086 377.689C294.823 377.541 295.55 377.973 295.71 378.654C297.129 384.691 302.029 386.204 308.846 383.878C314.733 381.87 320.171 377.32 320.171 374.81C320.171 373.84 319.851 373.001 319.245 372.114L319.163 372.008C319.024 371.846 318.806 371.67 318.415 371.402L317.515 370.802C316.018 369.782 315.438 369.094 315.438 367.796C315.438 367.1 316.049 366.535 316.803 366.535ZM323.212 296.596L322.349 296.686C275.765 301.864 240.817 336.303 238.911 382.517L243.91 379.266C258.257 369.958 274.91 359.325 293.869 347.369L297.563 345.305C308.592 339.155 319.137 333.367 329.204 327.938C329.02 327.64 328.968 327.274 329.093 326.923C329.797 324.937 330.447 323.603 331.639 322.266C335.369 318.084 340.479 316.041 344.1 318.667C344.456 318.926 344.636 319.316 344.621 319.704L347.838 318.008C357.965 312.68 367.548 307.758 376.592 303.237L373.06 302.309C367.821 300.946 361.303 299.329 354.811 298.085C354.871 302.078 351.637 305.266 346.264 307.46C341.697 309.324 335.746 310.327 331.514 310.094C323.598 309.658 319.142 303.24 323.212 296.596ZM404.93 351.394C408.271 359.831 405.514 367.502 397.173 367.452C385.288 367.38 373.682 357.789 375.558 349.196C376.395 345.362 379.512 341.972 384.934 340.279C393.593 337.577 401.529 342.807 404.93 351.394ZM385.808 342.67C381.327 344.069 378.882 346.728 378.234 349.695C376.745 356.515 386.85 364.866 397.191 364.929C403.114 364.964 405.151 359.295 402.366 352.262C399.419 344.82 392.831 340.478 385.808 342.67ZM285.423 312.799L285.521 312.929L286.178 313.895C286.499 314.385 286.788 314.866 287.062 315.385C290.086 321.099 290.008 328.589 284.891 338.987C282.573 343.697 276.668 350.027 271.511 353.805C264.926 358.629 260.01 359.724 254.142 359.129L252.401 358.94L252.188 358.922C252.072 358.914 251.998 358.913 251.916 358.916L251.796 358.92C251.706 358.924 251.674 358.92 251.669 358.909L251.668 358.9L251.625 358.966C251.229 359.491 250.46 359.663 249.842 359.346C249.183 359.007 248.946 358.239 249.313 357.63C249.803 356.814 250.623 356.445 251.667 356.399C251.943 356.387 252.236 356.396 252.584 356.423L252.991 356.459L254.117 356.586C259.462 357.185 263.715 356.296 269.815 351.827C274.659 348.279 280.288 342.244 282.405 337.942C287.194 328.212 287.264 321.509 284.609 316.493C284.433 316.159 284.248 315.842 284.048 315.523L283.763 315.082L283.19 314.245C282.79 313.655 282.983 312.876 283.621 312.506C284.22 312.159 284.998 312.294 285.423 312.799ZM447.289 309.551C438.561 310.256 424.88 314.241 409.108 320.168L409.569 320.545C413.958 324.185 422.815 332.817 425.586 338.974L428.348 336.144C435.161 329.139 440.104 323.88 443.177 320.365L443.799 319.644C446.736 316.198 448.635 313.32 449.219 311.399L449.302 311.107C449.667 309.721 449.245 309.393 447.289 309.551ZM316.57 313.65C319.967 315.168 321.346 318.548 319.111 321.613C318.69 322.191 317.841 322.343 317.216 321.954C316.591 321.564 316.426 320.78 316.847 320.202C318.077 318.516 317.383 316.816 315.381 315.922C313.273 314.98 310.963 315.521 309.771 317.578C308.673 319.473 308.597 322.038 309.474 323.719C310.244 325.194 311.365 325.476 313.075 324.287C313.677 323.868 314.533 323.979 314.986 324.536C315.44 325.093 315.319 325.884 314.717 326.303C311.601 328.471 308.517 327.693 307.015 324.815C305.756 322.403 305.857 318.987 307.365 316.386C309.288 313.068 313.209 312.148 316.57 313.65ZM333.746 323.872C333.109 324.585 332.654 325.338 332.233 326.305C335.751 324.416 339.209 322.57 342.608 320.769L342.509 320.716L342.414 320.653C340.33 319.141 336.655 320.609 333.746 323.872ZM327.924 296.21L326.73 296.288L326.65 296.381C321.931 301.894 323.749 306.368 330.193 307.003C334.822 307.459 347.11 304.285 348.551 303.171C349.955 302.086 351.73 299.591 352.004 297.57C347.834 296.845 343.754 296.312 340.115 296.14C336.397 295.964 332.73 295.969 329.124 296.145L327.924 296.21Z" fill="#00160A"/>
<path d="M451.182 276.677C480.095 266.857 479.433 269.771 452.124 279.046C419.793 290.027 297.753 358.834 297.753 358.834C242.358 389.829 238.214 385.044 291.906 354.884L295.216 353.028C295.84 352.679 356.969 317.02 400.65 297.942C405.565 295.795 447.89 277.795 451.182 276.677Z" fill="white"/>
<path fill-rule="evenodd" clip-rule="evenodd" d="M501.106 227.787C492.147 227.364 485.153 233.799 485.081 242.219C485.02 249.273 489.398 255.263 495.672 256.459C497.325 256.773 502.093 256.773 506.228 254.629L506.57 254.455C511.785 251.726 515.331 246.534 515.806 242.264C516.647 234.692 510.065 228.211 501.106 227.787ZM487.031 242.233C487.031 242.179 487.032 242.124 487.033 242.07C487.089 242.054 487.144 242.032 487.197 242.006C494.221 238.508 498.558 235.843 500.289 233.918C501.432 232.648 501.99 231.215 501.945 229.657C503.124 229.778 504.249 230.017 505.303 230.36C505.296 230.406 505.294 230.454 505.296 230.503C505.381 232.744 504.735 234.535 503.361 235.93C501.782 237.533 499.869 239.059 497.694 240.497C495.368 242.035 492.872 243.393 490.375 244.556C489.792 244.827 489.238 245.074 488.717 245.297L487.964 245.613C487.856 245.658 487.755 245.698 487.663 245.735L487.439 245.822C487.163 244.686 487.02 243.481 487.031 242.233ZM487.987 247.565C488.605 249.148 489.499 250.55 490.606 251.693L491.189 251.383C500.356 246.478 506.046 242.624 508.2 239.906C510.378 237.157 511.154 235.047 510.667 233.612C510.656 233.578 510.646 233.544 510.639 233.51C509.68 232.579 508.538 231.779 507.251 231.148C507.196 233.53 506.381 235.542 504.803 237.144C503.124 238.848 501.109 240.455 498.829 241.963C496.414 243.56 493.833 244.964 491.252 246.166C490.499 246.516 489.79 246.829 489.138 247.102L488.378 247.413L487.987 247.565ZM495.287 254.512C494.136 254.193 493.063 253.671 492.097 252.98C501.534 247.935 507.405 243.96 509.774 240.971C511.243 239.117 512.182 237.449 512.564 235.961C513.038 236.78 513.398 237.654 513.629 238.566C513.579 238.659 513.546 238.762 513.534 238.871C513.296 240.978 512.121 243.07 509.973 245.152C507.911 247.151 503.461 250.036 496.661 253.765L495.287 254.512ZM498.584 254.803C500.677 254.68 503.238 254.113 505.306 253.041C509.154 251.133 512.243 247.542 513.41 244.081C512.846 244.862 512.17 245.634 511.384 246.396C509.267 248.449 505.011 251.24 498.584 254.803ZM487.598 239.752L487.251 239.926C488.358 233.97 493.506 229.697 499.989 229.573C500.058 230.743 499.665 231.793 498.79 232.766C497.375 234.338 493.622 236.692 487.598 239.752Z" fill="#00160A"/>
<path fill-rule="evenodd" clip-rule="evenodd" d="M571.504 210.516C571.686 210.535 571.813 210.688 571.792 210.855C571.791 211.101 571.62 211.234 571.39 211.32C571.182 211.397 570.851 211.367 570.658 211.392C568.546 211.542 566.886 210.106 566.156 208.255C565.454 206.476 565.641 204.35 566.915 203.039C567.061 202.884 567.315 202.869 567.482 203.004C567.649 203.14 568.6 203.375 568.453 203.53C567.403 204.662 566.692 205.35 567.683 208.039C568.673 210.728 571.368 210.502 571.504 210.516Z" fill="#E7EAEE"/>
<path fill-rule="evenodd" clip-rule="evenodd" d="M235.265 229.768C234.71 229.416 233.951 229.546 233.57 230.059C233.189 230.572 233.33 231.273 233.885 231.626C234.495 232.012 235.034 232.37 235.509 232.702C234.997 233.078 234.486 233.51 233.954 234.001L232.876 235.013C232.402 235.455 232.406 236.168 232.884 236.606C233.362 237.044 234.134 237.041 234.607 236.599L235.901 235.391C236.427 234.917 236.92 234.521 237.417 234.191C238.519 235.201 238.854 235.942 238.872 236.678L238.872 236.867L238.879 236.982C238.941 237.55 239.46 237.993 240.091 237.993C240.764 237.993 241.31 237.489 241.31 236.867L241.31 236.645C241.287 235.498 240.849 234.406 239.669 233.159C240.449 232.944 241.327 232.824 242.392 232.772C243.064 232.74 243.58 232.21 243.545 231.589C243.51 230.967 242.937 230.49 242.264 230.522C240.416 230.612 238.979 230.896 237.699 231.437C237.165 231.034 236.559 230.61 235.875 230.161L235.265 229.768Z" fill="#00160A"/>
<path fill-rule="evenodd" clip-rule="evenodd" d="M417.907 476.637L418.752 476.64C423.478 476.681 427.171 477.074 434.126 478.106C434.924 478.225 435.467 478.918 435.338 479.656C435.21 480.393 434.46 480.895 433.662 480.776L431.383 480.445C425.628 479.628 422.312 479.341 417.907 479.341C402.62 479.341 392.862 488.185 394.513 501.75C394.604 502.492 394.026 503.161 393.223 503.244C392.421 503.328 391.697 502.794 391.606 502.052C389.749 486.796 400.959 476.637 417.907 476.637ZM429.745 482.096L429.603 481.98C429.465 481.87 429.253 481.885 429.137 482.014C429.016 482.142 429.035 482.334 429.172 482.444L429.32 482.559C429.457 482.669 429.665 482.654 429.785 482.526C429.901 482.398 429.888 482.205 429.745 482.096ZM403.24 484.923C402.715 484.533 401.948 484.61 401.526 485.095C399.823 487.054 398.582 488.962 397.808 490.825C397.055 492.636 396.798 495.681 396.994 500.033L397.041 500.952C397.076 501.574 397.65 502.051 398.322 502.018C398.994 501.985 399.511 501.455 399.475 500.834C399.216 496.287 399.437 493.189 400.084 491.633C400.761 490.003 401.873 488.293 403.426 486.507C403.848 486.022 403.764 485.313 403.24 484.923ZM416.542 481.196C417.14 480.909 417.876 481.125 418.185 481.678C418.495 482.23 418.261 482.91 417.664 483.196C415.188 484.382 413.297 486.369 411.979 489.202C410.565 492.243 409.408 494.956 408.508 497.34C408.286 497.928 407.591 498.238 406.955 498.033C406.32 497.828 405.984 497.185 406.206 496.598C407.126 494.16 408.304 491.398 409.74 488.312C411.271 485.019 413.543 482.632 416.542 481.196ZM423.629 481.136C423.185 480.668 422.415 480.621 421.908 481.031C419.874 482.679 418.311 484.177 417.217 485.536C416.13 486.886 414.858 488.904 413.386 491.603C413.083 492.159 413.325 492.836 413.926 493.116C414.527 493.396 415.26 493.173 415.563 492.617C416.978 490.024 418.185 488.107 419.172 486.882C420.151 485.665 421.6 484.277 423.515 482.726C424.021 482.316 424.072 481.604 423.629 481.136ZM419.178 493.859C418.672 494.269 417.902 494.222 417.458 493.754C417.015 493.286 417.065 492.575 417.572 492.164C419.487 490.614 420.935 489.225 421.914 488.009C422.901 486.783 424.109 484.867 425.524 482.273C425.826 481.718 426.559 481.494 427.161 481.774C427.762 482.054 428.003 482.732 427.7 483.287C426.228 485.987 424.956 488.005 423.87 489.354C422.776 490.713 421.213 492.212 419.178 493.859ZM409.95 482.114C409.396 481.761 408.636 481.889 408.254 482.401C405.529 486.048 403.789 488.774 403.019 490.625C402.247 492.483 401.714 494.987 401.404 498.153C401.344 498.772 401.838 499.32 402.508 499.376C403.179 499.432 403.771 498.975 403.832 498.356C404.123 495.38 404.616 493.068 405.295 491.433C405.929 489.909 407.405 487.558 409.713 484.42L410.26 483.681C410.642 483.169 410.503 482.468 409.95 482.114Z" fill="#00160A"/>
<path fill-rule="evenodd" clip-rule="evenodd" d="M386.81 475.47L387.65 477.195L389.565 477.703C389.668 477.731 389.728 477.831 389.698 477.926C389.689 477.956 389.672 477.983 389.649 478.004L388.194 479.343L388.275 481.269C388.28 481.369 388.196 481.453 388.088 481.456C388.052 481.458 388.016 481.45 387.984 481.433L386.337 480.566C386.286 480.539 386.224 480.535 386.169 480.555L384.407 481.202C384.307 481.239 384.194 481.193 384.154 481.101C384.14 481.069 384.137 481.035 384.143 481.002L384.514 479.105L383.275 477.592C383.21 477.513 383.227 477.4 383.313 477.34C383.339 477.321 383.37 477.309 383.403 477.305L385.376 477.048L386.467 475.448C386.525 475.364 386.645 475.338 386.736 475.392C386.769 475.41 386.794 475.438 386.81 475.47Z" fill="#00160A"/>
<path fill-rule="evenodd" clip-rule="evenodd" d="M454.636 233.936C455.084 234.303 455.644 234.966 456.139 235.684L456.775 235.423L457.527 235.125C457.678 235.061 457.776 235.011 457.806 234.971C457.893 234.821 458.093 234.765 458.256 234.844C458.414 234.923 458.479 235.108 458.392 235.257C458.332 235.398 457.91 235.842 457.125 236.276C456.983 236.355 456.826 236.428 456.657 236.5C456.947 237 457.174 237.483 457.281 237.871C457.442 238.442 457.313 238.847 457.101 238.99C456.893 239.13 456.371 239.157 455.577 238.547C455.431 238.444 455.408 238.252 455.519 238.118C455.63 237.985 455.836 237.961 455.983 238.063C456.134 238.166 456.286 238.225 456.41 238.267L456.35 238.048C456.326 237.97 456.297 237.889 456.257 237.809C456.114 237.521 455.933 237.193 455.73 236.855C455.109 237.072 454.402 237.269 453.639 237.363C453.266 237.41 452.887 237.419 452.493 237.416C452.267 237.429 452.07 237.27 452.055 237.061C452.04 236.851 452.212 236.67 452.439 236.656C453.357 236.574 454.206 236.36 454.956 236.118L455.202 236.037C454.796 235.451 454.362 234.919 453.989 234.618C453.788 234.453 453.767 234.166 453.944 233.978C454.125 233.789 454.434 233.77 454.636 233.936Z" fill="#00160A"/>
<path fill-rule="evenodd" clip-rule="evenodd" d="M186.209 386.427C184.943 386.499 182.936 386.791 181.297 387.391C179.896 387.905 179.977 402.053 184.785 403.204C189.568 404.711 194.777 402.768 194.11 395.194C194.098 395.036 193.958 394.604 193.798 394.11C193.563 393.386 193.284 392.527 193.299 392.191C193.357 391.003 193.016 389.999 192.129 389.366C191.167 387.478 189.294 386.256 186.209 386.427ZM185.596 399.761C183.242 398.113 183.281 390.474 185.954 389.976C187.626 391.18 189.155 392.914 189.687 396.244C189.124 398.074 187.919 399.129 186.865 400.051C186.752 400.15 186.641 400.247 186.533 400.343C186.23 400.181 185.917 399.984 185.596 399.761Z" fill="white"/>
<path fill-rule="evenodd" clip-rule="evenodd" d="M182.717 395.288C182.497 394.097 182.635 392.765 183.268 391.345C183.556 390.702 184.318 390.18 185.273 389.832C186.39 389.426 187.758 389.227 188.62 389.179C190.723 389.062 191.998 389.889 192.653 391.166C193.258 391.595 193.489 392.274 193.45 393.079C193.433 393.461 193.981 394.847 194.001 395.111C194.453 400.238 190.903 401.554 187.645 400.535C186.412 401.115 185.221 401.207 184.32 400.581C183.512 400.022 182.888 398.848 182.734 396.781C182.694 396.248 182.688 395.751 182.717 395.288ZM188.469 391.943C186.613 392.276 186.564 397.29 188.193 398.367C188.415 398.512 188.631 398.641 188.841 398.747C189.622 398.09 190.204 397.558 190.53 396.465C190.855 395.373 189.626 392.73 188.469 391.943Z" fill="#FFB61D"/>
<path fill-rule="evenodd" clip-rule="evenodd" d="M310.704 520.321C310.149 519.969 309.391 520.099 309.01 520.612C308.629 521.125 308.77 521.827 309.325 522.179C309.934 522.566 310.473 522.923 310.948 523.255C310.436 523.632 309.925 524.063 309.393 524.554L308.315 525.566C307.841 526.008 307.845 526.721 308.323 527.159C308.801 527.598 309.573 527.594 310.047 527.152L311.34 525.944C311.866 525.47 312.36 525.074 312.856 524.745C313.958 525.755 314.294 526.495 314.312 527.231L314.312 527.42L314.318 527.535C314.38 528.103 314.899 528.547 315.531 528.547C316.204 528.547 316.749 528.042 316.749 527.42L316.749 527.199C316.727 526.051 316.288 524.959 315.109 523.712C315.888 523.497 316.766 523.377 317.831 523.326C318.503 523.293 319.019 522.763 318.984 522.142C318.949 521.521 318.376 521.043 317.704 521.076C315.855 521.165 314.418 521.45 313.138 521.991C312.604 521.587 311.999 521.163 311.315 520.715L310.704 520.321Z" fill="#00160A"/>
<path fill-rule="evenodd" clip-rule="evenodd" d="M310.704 520.321C310.149 519.969 309.391 520.099 309.01 520.612C308.629 521.125 308.77 521.827 309.325 522.179C309.934 522.566 310.473 522.923 310.948 523.255C310.436 523.632 309.925 524.063 309.393 524.554L308.315 525.566C307.841 526.008 307.845 526.721 308.323 527.159C308.801 527.598 309.573 527.594 310.047 527.152L311.34 525.944C311.866 525.47 312.36 525.074 312.856 524.745C313.958 525.755 314.294 526.495 314.312 527.231L314.312 527.42L314.318 527.535C314.38 528.103 314.899 528.547 315.531 528.547C316.204 528.547 316.749 528.042 316.749 527.42L316.749 527.199C316.727 526.051 316.288 524.959 315.109 523.712C315.888 523.497 316.766 523.377 317.831 523.326C318.503 523.293 319.019 522.763 318.984 522.142C318.949 521.521 318.376 521.043 317.704 521.076C315.855 521.165 314.418 521.45 313.138 521.991C312.604 521.587 311.999 521.163 311.315 520.715L310.704 520.321Z" fill="#00160A"/>
<path fill-rule="evenodd" clip-rule="evenodd" d="M352.363 489.457L353.203 491.182L355.117 491.69C355.221 491.717 355.281 491.817 355.251 491.913C355.242 491.942 355.225 491.969 355.201 491.991L353.747 493.329L353.828 495.256C353.832 495.355 353.748 495.439 353.641 495.443C353.604 495.444 353.568 495.436 353.537 495.419L351.89 494.552C351.838 494.525 351.776 494.521 351.721 494.542L349.96 495.188C349.86 495.225 349.746 495.18 349.706 495.087C349.693 495.056 349.689 495.022 349.696 494.989L350.067 493.091L348.828 491.579C348.762 491.499 348.779 491.386 348.865 491.326C348.892 491.308 348.923 491.296 348.956 491.291L350.928 491.035L352.02 489.434C352.077 489.35 352.198 489.325 352.289 489.378C352.321 489.397 352.347 489.424 352.363 489.457Z" fill="#00160A"/>
<path fill-rule="evenodd" clip-rule="evenodd" d="M246.691 477.602L248.119 478.958L250.106 478.83C250.213 478.823 250.306 478.898 250.314 478.997C250.316 479.028 250.31 479.058 250.296 479.086L249.424 480.804L250.214 482.588C250.254 482.681 250.207 482.786 250.107 482.823C250.073 482.836 250.036 482.84 250 482.834L248.132 482.54C248.074 482.531 248.014 482.547 247.97 482.583L246.554 483.748C246.473 483.814 246.35 483.807 246.278 483.733C246.254 483.708 246.238 483.677 246.232 483.644L245.878 481.744L244.154 480.714C244.064 480.66 244.038 480.548 244.096 480.465C244.114 480.439 244.139 480.418 244.168 480.403L245.927 479.539L246.36 477.69C246.383 477.592 246.487 477.531 246.592 477.552C246.63 477.559 246.664 477.577 246.691 477.602Z" fill="#00160A"/>
<path fill-rule="evenodd" clip-rule="evenodd" d="M224.396 354.055L225.236 355.78L227.151 356.288C227.254 356.316 227.314 356.415 227.284 356.511C227.275 356.541 227.258 356.567 227.235 356.589L225.78 357.928L225.861 359.854C225.866 359.954 225.782 360.037 225.674 360.041C225.638 360.043 225.602 360.034 225.57 360.018L223.923 359.151C223.872 359.124 223.81 359.12 223.754 359.14L221.993 359.787C221.893 359.823 221.78 359.778 221.74 359.686C221.726 359.654 221.723 359.62 221.729 359.587L222.1 357.69L220.861 356.177C220.796 356.098 220.813 355.985 220.899 355.925C220.925 355.906 220.956 355.894 220.989 355.89L222.962 355.633L224.053 354.033C224.111 353.949 224.231 353.923 224.322 353.976C224.355 353.995 224.38 354.023 224.396 354.055Z" fill="#00160A"/>
<path fill-rule="evenodd" clip-rule="evenodd" d="M224.201 355.773L224.558 356.506L225.371 356.722C225.415 356.733 225.441 356.776 225.428 356.816C225.424 356.829 225.417 356.84 225.407 356.85L224.789 357.418L224.823 358.236C224.825 358.279 224.79 358.314 224.744 358.316C224.728 358.317 224.713 358.313 224.7 358.306L224 357.938C223.978 357.926 223.952 357.925 223.929 357.933L223.18 358.208C223.138 358.223 223.09 358.204 223.073 358.165C223.067 358.152 223.065 358.137 223.068 358.123L223.226 357.317L222.699 356.675C222.672 356.641 222.679 356.593 222.715 356.567C222.727 356.56 222.74 356.554 222.754 356.553L223.592 356.444L224.055 355.764C224.08 355.728 224.131 355.717 224.17 355.74C224.183 355.748 224.194 355.759 224.201 355.773Z" fill="#E7EAEE"/>
<path fill-rule="evenodd" clip-rule="evenodd" d="M124.544 429.749L125.384 431.474L127.298 431.982C127.402 432.009 127.462 432.109 127.432 432.205C127.423 432.234 127.406 432.261 127.382 432.283L125.927 433.622L126.009 435.548C126.013 435.647 125.929 435.731 125.822 435.735C125.785 435.736 125.749 435.728 125.717 435.712L124.07 434.845C124.019 434.818 123.957 434.814 123.902 434.834L122.14 435.48C122.04 435.517 121.927 435.472 121.887 435.379C121.874 435.348 121.87 435.314 121.877 435.281L122.247 433.384L121.008 431.871C120.943 431.792 120.96 431.679 121.046 431.618C121.073 431.6 121.104 431.588 121.137 431.584L123.109 431.327L124.201 429.727C124.258 429.642 124.379 429.617 124.47 429.67C124.502 429.689 124.528 429.716 124.544 429.749Z" fill="#00160A"/>
<path fill-rule="evenodd" clip-rule="evenodd" d="M208.937 274.833L209.547 275.226C210.232 275.675 212.788 277.902 213.322 278.306C214.601 277.764 216.037 277.479 217.886 277.39C218.558 277.357 219.132 277.835 219.167 278.456C219.202 279.077 218.686 279.607 218.013 279.64C216.948 279.691 216.07 279.811 215.29 280.026C216.471 281.274 216.909 282.365 216.932 283.513L216.932 283.734C216.932 284.356 216.386 284.861 215.713 284.861C215.082 284.861 214.563 284.417 214.501 283.849L214.494 283.734L214.494 283.545C214.476 282.809 214.141 282.069 213.039 281.059C212.542 281.388 212.049 281.784 211.523 282.258L210.229 283.466C209.755 283.908 208.984 283.911 208.506 283.473C208.027 283.035 208.024 282.322 208.498 281.88L209.576 280.868C210.107 280.377 210.619 279.946 211.131 279.569C210.232 277.671 206.861 275.637 207.242 275.124C207.623 274.611 208.382 274.481 208.937 274.833Z" fill="#00160A"/>
<path fill-rule="evenodd" clip-rule="evenodd" d="M444.113 404.764L445.774 405.87L447.707 405.425C447.812 405.401 447.917 405.46 447.944 405.557C447.952 405.586 447.951 405.618 447.943 405.647L447.407 407.479L448.519 409.109C448.577 409.194 448.55 409.305 448.459 409.358C448.428 409.376 448.392 409.386 448.356 409.386L446.46 409.396C446.401 409.397 446.345 409.422 446.309 409.465L445.133 410.839C445.066 410.917 444.943 410.93 444.859 410.868C444.83 410.847 444.809 410.82 444.796 410.788L444.091 408.973L442.2 408.236C442.101 408.197 442.054 408.092 442.096 408C442.109 407.972 442.129 407.947 442.156 407.928L443.725 406.794L443.805 404.904C443.809 404.804 443.899 404.727 444.007 404.73C444.045 404.732 444.082 404.744 444.113 404.764Z" fill="#00160A"/>
<path fill-rule="evenodd" clip-rule="evenodd" d="M463.19 334.155L463.693 335.989L465.483 336.796C465.58 336.84 465.62 336.948 465.573 337.037C465.558 337.065 465.536 337.089 465.509 337.106L463.825 338.191L463.543 340.101C463.529 340.2 463.43 340.269 463.324 340.255C463.288 340.251 463.254 340.237 463.226 340.216L461.767 339.097C461.721 339.062 461.661 339.049 461.603 339.06L459.746 339.414C459.641 339.434 459.538 339.371 459.516 339.274C459.509 339.241 459.511 339.206 459.524 339.175L460.246 337.366L459.31 335.677C459.26 335.589 459.298 335.48 459.394 335.435C459.424 335.421 459.457 335.414 459.49 335.415L461.481 335.479L462.856 334.078C462.929 334.004 463.052 333.999 463.132 334.066C463.16 334.089 463.18 334.12 463.19 334.155Z" fill="#00160A"/>
<path fill-rule="evenodd" clip-rule="evenodd" d="M419.748 260.35L420.251 262.184L422.041 262.991C422.138 263.035 422.178 263.143 422.131 263.232C422.116 263.26 422.094 263.284 422.067 263.301L420.383 264.386L420.101 266.296C420.087 266.395 419.989 266.464 419.882 266.451C419.846 266.446 419.812 266.432 419.784 266.411L418.325 265.293C418.279 265.258 418.219 265.244 418.161 265.255L416.305 265.609C416.199 265.629 416.096 265.566 416.074 265.469C416.067 265.436 416.07 265.402 416.082 265.37L416.804 263.561L415.868 261.873C415.819 261.784 415.856 261.675 415.952 261.63C415.982 261.616 416.015 261.609 416.048 261.61L418.039 261.674L419.415 260.273C419.487 260.199 419.61 260.194 419.69 260.261C419.718 260.285 419.739 260.316 419.748 260.35Z" fill="#00160A"/>
<path fill-rule="evenodd" clip-rule="evenodd" d="M548.087 278.319L548.828 278.257C549.665 278.195 550.424 278.159 551.114 278.151C551.716 276.977 552.619 275.905 553.973 274.738C554.466 274.314 555.237 274.339 555.696 274.794C556.155 275.249 556.128 275.962 555.635 276.386C554.855 277.058 554.266 277.672 553.818 278.3C555.591 278.554 556.685 279.13 557.5 279.995L557.654 280.165C558.087 280.642 558.02 281.352 557.504 281.752C557.021 282.127 556.315 282.096 555.872 281.698L555.787 281.613L555.656 281.469C555.13 280.916 554.358 280.548 552.812 280.429C552.66 280.976 552.558 281.573 552.484 282.248L552.334 283.942C552.278 284.562 551.689 285.023 551.018 284.972C550.347 284.92 549.849 284.376 549.904 283.756L550.026 282.34C550.092 281.648 550.184 281.014 550.314 280.421C549.72 280.449 549.058 280.495 548.322 280.561C547.652 280.621 547.056 280.168 546.991 279.548C546.926 278.929 547.417 278.378 548.087 278.319Z" fill="#00160A"/>
<path fill-rule="evenodd" clip-rule="evenodd" d="M449.66 356.089C449.439 356.604 448.957 357.317 448.396 357.992L448.879 358.455L449.439 359.007L449.564 359.117C449.618 359.162 449.661 359.189 449.692 359.196C449.873 359.22 449.999 359.375 449.975 359.543C449.949 359.708 449.782 359.827 449.601 359.803C449.437 359.8 448.841 359.584 448.131 359.051C448.003 358.955 447.875 358.843 447.745 358.721C447.335 359.144 446.921 359.507 446.564 359.732C446.038 360.067 445.582 360.094 445.365 359.958C445.151 359.826 444.945 359.382 445.294 358.483C445.348 358.321 445.536 358.235 445.709 358.286C445.883 358.337 445.978 358.508 445.924 358.67C445.871 358.837 445.864 358.989 445.863 359.111L446.065 358.984C446.136 358.937 446.209 358.884 446.276 358.821C446.52 358.599 446.792 358.33 447.066 358.038C446.633 357.572 446.191 357.026 445.834 356.395C445.66 356.088 445.521 355.761 445.389 355.418C445.298 355.226 445.392 355.001 445.6 354.916C445.808 354.831 446.051 354.919 446.143 355.111C446.54 355.881 447.049 356.545 447.55 357.113L447.717 357.299C448.174 356.746 448.567 356.187 448.745 355.761C448.844 355.529 449.128 355.413 449.38 355.502C449.634 355.595 449.759 355.857 449.66 356.089Z" fill="#E7EAEE"/>
<path fill-rule="evenodd" clip-rule="evenodd" d="M437.759 126.481C438.502 126.361 439.209 126.821 439.338 127.507C439.467 128.194 438.97 128.847 438.227 128.967C434.694 129.536 430.443 131.488 426.77 134.631C422 138.713 418.482 144.475 416.745 151.995C415.345 158.054 416.631 166.032 420.289 172.687C424.451 180.259 431.14 185.408 439.724 186.857C448.537 188.344 455.992 187.421 464.319 184.684L465.085 184.427C465.328 184.342 465.759 184.188 466.3 183.995L466.307 183.993L466.309 183.992C468.314 183.277 471.818 182.028 472.823 181.747C475.516 180.994 477.352 181.057 478.684 182.369C479.2 182.877 479.172 183.675 478.622 184.152C478.107 184.599 477.315 184.605 476.793 184.185L476.693 184.096C476.3 183.709 475.488 183.664 473.853 184.097L473.614 184.162C472.727 184.41 469.482 185.567 467.459 186.288L467.459 186.288L467.458 186.288L467.454 186.29L467.453 186.29C466.672 186.568 466.074 186.781 465.866 186.852C456.872 189.886 448.802 190.955 439.234 189.339C429.753 187.739 422.381 182.066 417.855 173.83C413.921 166.673 412.541 158.109 414.075 151.468C415.929 143.442 419.73 137.217 424.915 132.78C428.973 129.306 433.706 127.133 437.759 126.481ZM446.992 132.577C447.732 132.443 448.449 132.889 448.594 133.572C448.739 134.256 448.256 134.919 447.516 135.053C436.452 137.056 427.554 144.867 424.973 155.2C424.099 158.697 424.363 161.54 425.221 162.625L425.334 162.761L425.343 162.779L425.359 162.768C425.666 162.512 426.025 161.858 426.303 160.844L426.362 160.621C429.016 149.995 437.781 141.769 448.977 139.007C449.705 138.827 450.453 139.227 450.648 139.901C450.842 140.574 450.409 141.266 449.681 141.445C439.594 143.934 431.669 151.274 429.126 160.786L429.022 161.189C428.086 164.937 425.398 166.726 423.221 164.354C421.628 162.618 421.237 158.937 422.312 154.632C425.138 143.321 434.879 134.769 446.992 132.577ZM463.411 146.427C463.357 145.731 462.704 145.208 461.952 145.258C448.665 146.134 437.012 154.11 432.376 165.884C430.617 170.351 430.512 174.324 431.953 176.35C433.885 179.067 436.923 177.526 438.439 173.678L438.598 173.283C442.698 163.32 452.305 156.361 463.552 154.91C464.299 154.813 464.82 154.176 464.715 153.486C464.611 152.795 463.921 152.314 463.175 152.41C450.788 154.008 440.229 161.754 435.873 172.815L435.777 173.051C435.293 174.202 434.762 174.896 434.361 175.1L434.343 175.111C434.34 175.113 434.337 175.115 434.336 175.117C434.332 175.12 434.331 175.121 434.329 175.121C434.327 175.121 434.325 175.117 434.321 175.109C434.313 175.09 434.294 175.047 434.234 174.964L434.162 174.854C433.37 173.556 433.491 170.432 434.942 166.747C439.206 155.917 449.924 148.581 462.146 147.775C462.898 147.725 463.464 147.122 463.411 146.427ZM469.356 158.693C470.108 158.644 470.762 159.167 470.815 159.862C470.869 160.557 470.303 161.161 469.551 161.21C460.981 161.775 453.467 166.919 450.477 174.512C449.591 176.762 449.426 178.687 449.743 179.661L449.782 179.77L449.843 179.69C449.995 179.476 450.167 179.169 450.335 178.771L450.407 178.595C453.565 170.575 461.222 164.958 470.203 163.8C470.95 163.703 471.639 164.185 471.744 164.875C471.848 165.565 471.327 166.203 470.58 166.299C462.724 167.313 456.009 172.159 453.116 179.103L452.973 179.458C451.801 182.432 449.269 183.717 447.65 181.439C446.54 179.879 446.618 176.933 447.912 173.649C451.273 165.112 459.722 159.328 469.356 158.693ZM476.551 168.86C476.498 168.165 475.845 167.641 475.093 167.691C468.641 168.116 462.982 171.99 460.731 177.707C459.843 179.961 459.789 182.012 460.61 183.167C461.956 185.06 464.048 183.999 464.919 181.787L465.038 181.496C466.872 177.167 471.075 174.149 475.989 173.515C476.735 173.418 477.256 172.781 477.152 172.091C477.048 171.4 476.358 170.919 475.611 171.015L475.265 171.063C469.976 171.851 465.412 174.954 463.045 179.42L462.963 179.579L463.014 179.398C463.09 179.135 463.183 178.857 463.296 178.57C465.176 173.797 469.9 170.563 475.287 170.208C476.039 170.158 476.605 169.555 476.551 168.86Z" fill="#00160A"/>
<path fill-rule="evenodd" clip-rule="evenodd" d="M469.356 158.693C470.108 158.644 470.761 159.167 470.815 159.862C470.869 160.557 470.303 161.161 469.551 161.21C460.981 161.775 453.467 166.919 450.477 174.512C449.591 176.762 449.426 178.687 449.743 179.661L449.782 179.77L449.843 179.69C449.995 179.476 450.167 179.169 450.335 178.771L450.407 178.595C453.565 170.575 461.222 164.958 470.203 163.8C470.949 163.703 471.639 164.185 471.744 164.875C471.848 165.565 471.327 166.203 470.58 166.299C462.724 167.313 456.009 172.159 453.116 179.103L452.972 179.458C451.801 182.432 449.269 183.717 447.65 181.439C446.54 179.879 446.618 176.933 447.911 173.649C451.273 165.112 459.722 159.328 469.356 158.693Z" fill="#00160A"/>
<path d="M384.335 322.978C412.955 310.604 436.885 304.069 451.783 302.868C456.345 302.501 458.414 304.826 457.259 308.607C456.401 311.415 453.788 315.268 449.784 319.831C442.803 327.786 433.599 334.593 424.433 340.924C439.097 328.414 442.837 323.181 447.359 318.027L448.07 317.208C451.423 313.289 453.591 310.015 454.258 307.83L454.353 307.498C454.769 305.921 454.287 305.548 452.054 305.728C437.493 306.901 413.655 313.45 385.14 325.807C356.578 338.183 355.761 335.332 384.335 322.978Z" fill="white"/>
<path d="M253.438 282.95L253.648 283.41C255.097 286.588 256.604 289.735 258.314 293.167L258.979 294.499C258.761 294.634 258.475 294.778 258.159 294.905C257.707 295.088 257.247 295.216 256.902 295.259L256.792 295.269L256.626 295.085C255.333 293.614 253.833 291.116 252.749 288.631C252.172 287.307 251.761 286.094 251.576 285.161C251.5 284.781 251.465 284.462 251.468 284.22L251.476 284.06C251.479 284.021 251.479 284.001 251.469 283.998L251.509 283.973C251.74 283.826 252.33 283.507 253.206 283.067L253.438 282.95Z" fill="white"/>
<path fill-rule="evenodd" clip-rule="evenodd" d="M289.619 271.439C290.515 270.426 291.676 270.577 293.147 271.401L293.525 271.622L294.583 272.27C294.879 272.445 295.007 272.506 295.18 272.569C295.58 272.716 295.775 273.136 295.616 273.506C295.456 273.876 295.003 274.056 294.602 273.909L294.46 273.855C294.189 273.748 293.985 273.636 293.437 273.3L292.678 272.833C292.553 272.757 292.445 272.694 292.338 272.634C291.458 272.141 291.059 272.089 290.827 272.351C290.681 272.517 290.717 272.869 291.007 273.591L291.325 274.349C291.958 275.902 291.962 276.596 290.835 277.188C289.864 277.698 289.367 277.46 287.973 276.198L287.635 275.888C286.743 275.065 286.275 274.778 285.974 274.837C285.874 274.856 285.757 274.922 285.614 275.062C285.447 275.227 285.4 275.754 285.502 276.688L285.659 277.909C285.843 279.401 285.769 279.787 285.103 280.199C284.185 280.767 282.964 280.126 280.701 278.247C280.38 277.981 280.354 277.525 280.642 277.229C280.93 276.933 281.423 276.908 281.743 277.174C282.711 277.977 283.441 278.5 283.952 278.768L284.066 278.826L284.161 278.87L284.164 278.78L284.158 278.564C284.148 278.387 284.124 278.173 284.076 277.809L283.977 277.06C283.787 275.541 283.846 274.697 284.476 274.076C284.826 273.731 285.219 273.51 285.651 273.426C286.653 273.23 287.365 273.626 288.547 274.694L289.144 275.236C289.787 275.808 290.026 275.954 290.063 275.935C290.209 275.858 290.187 275.619 289.792 274.681L289.619 274.275C289.068 272.965 288.963 272.181 289.619 271.439Z" fill="#00160A"/>
<path fill-rule="evenodd" clip-rule="evenodd" d="M374.783 154.078L374.042 154.139C373.372 154.199 372.882 154.75 372.947 155.369C372.986 155.744 373.219 156.057 373.545 156.234L373.417 156.318C372.867 156.678 372.736 157.381 373.125 157.889C373.513 158.397 374.274 158.518 374.824 158.158L376.076 157.339C376.04 157.604 376.009 157.877 375.982 158.161L375.86 159.577C375.804 160.197 376.303 160.741 376.974 160.793C377.644 160.844 378.233 160.383 378.289 159.763L378.44 158.069C378.479 157.706 378.527 157.367 378.586 157.045C379.014 157.796 379.1 158.374 379.009 158.921L378.974 159.107L378.958 159.221C378.913 159.79 379.341 160.31 379.962 160.412C380.625 160.52 381.258 160.111 381.374 159.498L381.416 159.28C381.545 158.519 381.486 157.754 381.153 156.904C381.328 157.02 381.477 157.149 381.611 157.29L381.742 157.434L381.827 157.519C382.27 157.917 382.976 157.948 383.46 157.573C383.975 157.173 384.043 156.462 383.61 155.986L383.456 155.816C383.401 155.758 383.345 155.701 383.288 155.646C383.924 155.68 384.488 155.252 384.567 154.659C384.649 154.041 384.174 153.479 383.506 153.403C382.357 153.272 381.352 153.243 380.428 153.32C380.759 152.959 381.143 152.592 381.591 152.207C382.083 151.783 382.11 151.07 381.651 150.615C381.192 150.16 380.421 150.134 379.929 150.559C379.103 151.27 378.445 151.947 377.92 152.633C377.718 152.434 377.505 152.231 377.282 152.022L376.755 151.537C376.275 151.101 375.503 151.107 375.031 151.551C374.56 151.995 374.567 152.709 375.047 153.145C375.381 153.447 375.688 153.734 375.972 154.005C375.594 154.023 375.198 154.047 374.783 154.078Z" fill="#00160A"/>
<path fill-rule="evenodd" clip-rule="evenodd" d="M327.855 161.874C327.57 161.598 327.101 161.611 326.808 161.903C326.516 162.195 326.51 162.656 326.795 162.932C327.063 163.191 327.303 163.431 327.517 163.655C327.048 163.846 326.576 164.093 326.071 164.397L325.304 164.866C324.967 165.07 324.888 165.472 325.128 165.764C325.368 166.055 325.836 166.126 326.173 165.921L327.092 165.362C327.573 165.082 328.006 164.868 328.44 164.717C329.08 165.563 329.208 166.108 329.118 166.615L329.094 166.736L329.083 166.81C329.047 167.178 329.3 167.509 329.676 167.567C330.077 167.629 330.466 167.358 330.546 166.961L330.575 166.819C330.709 166.082 330.586 165.343 330.038 164.434C330.423 164.423 330.843 164.445 331.318 164.497C331.729 164.542 332.102 164.292 332.151 163.939C332.2 163.585 331.906 163.263 331.496 163.218C330.59 163.119 329.831 163.116 329.134 163.214C328.858 162.892 328.537 162.549 328.168 162.181L327.855 161.874Z" fill="#E7EAEE"/>
<path fill-rule="evenodd" clip-rule="evenodd" d="M170.727 349.705L171.567 351.43L173.482 351.938C173.586 351.965 173.645 352.065 173.616 352.161C173.607 352.19 173.589 352.217 173.566 352.239L172.111 353.577L172.193 355.504C172.197 355.603 172.113 355.687 172.005 355.691C171.969 355.692 171.933 355.684 171.901 355.667L170.254 354.8C170.203 354.773 170.141 354.769 170.086 354.79L168.324 355.436C168.224 355.473 168.111 355.428 168.071 355.335C168.058 355.304 168.054 355.27 168.06 355.237L168.431 353.339L167.192 351.827C167.127 351.747 167.144 351.634 167.23 351.574C167.256 351.556 167.288 351.544 167.32 351.539L169.293 351.283L170.385 349.682C170.442 349.598 170.562 349.573 170.654 349.626C170.686 349.645 170.712 349.672 170.727 349.705Z" fill="#00160A"/>
<path fill-rule="evenodd" clip-rule="evenodd" d="M181.927 253.949L182.767 255.674L184.682 256.182C184.786 256.209 184.845 256.309 184.816 256.405C184.807 256.434 184.789 256.461 184.766 256.483L183.311 257.821L183.393 259.748C183.397 259.847 183.313 259.931 183.205 259.935C183.169 259.936 183.133 259.928 183.101 259.911L181.454 259.044C181.403 259.017 181.341 259.013 181.286 259.034L179.524 259.68C179.424 259.717 179.311 259.672 179.271 259.579C179.258 259.548 179.254 259.514 179.26 259.481L179.631 257.583L178.392 256.071C178.327 255.991 178.344 255.878 178.43 255.818C178.456 255.8 178.487 255.788 178.52 255.783L180.493 255.527L181.585 253.926C181.642 253.842 181.762 253.817 181.854 253.87C181.886 253.889 181.912 253.916 181.927 253.949Z" fill="#00160A"/>
<path d="M207.297 406.403C207.923 405.983 208.799 406.112 209.253 406.69C209.707 407.268 189.901 422.179 182.217 429.013L181.324 429.813C176.935 433.782 173.7 437.219 171.876 439.936C169.943 442.815 169.819 444.379 171.067 445.018C175.801 447.443 182.607 448.624 192.356 447.132L193.357 446.974C197.068 446.373 224.981 440.747 224.539 440.896L224.367 440.944C223.487 441.159 212.121 444.792 208.199 445.715L207.724 445.826C201.728 447.22 197.035 448.176 192.813 448.822C182.497 450.402 175.127 450.057 169.71 447.282C166.583 445.68 166.832 442.54 169.496 438.572C171.592 435.45 175.278 431.593 180.276 427.148C188.062 420.223 199.013 411.963 207.297 406.403Z" fill="white"/>
<path fill-rule="evenodd" clip-rule="evenodd" d="M353.134 227.029C353.476 226.819 353.934 226.909 354.158 227.23L359.212 234.468C359.436 234.788 359.341 235.219 358.999 235.429C358.657 235.639 358.199 235.549 357.975 235.229L352.921 227.99C352.697 227.67 352.793 227.24 353.134 227.029Z" fill="#00160A"/>
<path fill-rule="evenodd" clip-rule="evenodd" d="M353.381 221.682C353.773 221.469 354.29 221.576 354.537 221.921L358.015 226.79C358.261 227.135 358.144 227.588 357.752 227.801C357.361 228.014 356.844 227.907 356.597 227.561L353.119 222.693C352.873 222.347 352.99 221.895 353.381 221.682Z" fill="#00160A"/>
</svg>
