<svg width="200" height="70" viewBox="0 0 200 70" fill="none" xmlns="http://www.w3.org/2000/svg">
<path d="M125.8 17.35H121.91V26.1H125.81C126.968 26.1294 128.125 25.9844 129.24 25.67C130.074 25.4395 130.811 24.9448 131.34 24.26C131.85 23.5103 132.102 22.6155 132.06 21.71C132.098 20.5688 131.685 19.4586 130.91 18.62C130.08 17.77 128.36 17.35 125.77 17.35H125.8ZM127.21 30.48H121.91V38.58C121.975 39.5314 121.682 40.4728 121.09 41.22C120.82 41.5026 120.496 41.7275 120.137 41.8811C119.777 42.0348 119.391 42.114 119 42.114C118.609 42.114 118.223 42.0348 117.863 41.8811C117.504 41.7275 117.18 41.5026 116.91 41.22C116.324 40.4819 116.038 39.5497 116.11 38.61V16.55C116.06 16.0588 116.112 15.5626 116.264 15.0927C116.415 14.6228 116.663 14.1895 116.99 13.82C117.784 13.2063 118.78 12.9136 119.78 13H127.22C128.928 12.9438 130.636 13.1119 132.3 13.5C133.409 13.8071 134.435 14.3609 135.3 15.12C136.18 15.8731 136.866 16.8265 137.3 17.9C137.756 19.0759 137.98 20.3289 137.96 21.59C137.96 24.51 137.063 26.72 135.27 28.22C133.47 29.72 130.79 30.48 127.27 30.48" fill="#0F0F0F"/>
<path d="M145.6 29.56H155.27C155.264 28.0666 154.741 26.6213 153.79 25.47C153.358 25.0158 152.834 24.6595 152.252 24.4249C151.671 24.1903 151.046 24.0829 150.42 24.11C149.808 24.0908 149.198 24.2041 148.634 24.4423C148.07 24.6805 147.563 25.0379 147.15 25.49C146.202 26.6408 145.658 28.0704 145.6 29.56V29.56ZM156.03 32.56H145.6C145.585 33.6728 145.835 34.7732 146.33 35.77C146.75 36.6365 147.405 37.3676 148.22 37.88C149.009 38.3485 149.912 38.5906 150.83 38.58C151.421 38.5878 152.01 38.5137 152.58 38.36C153.123 38.2022 153.639 37.9628 154.11 37.65C154.589 37.3489 155.047 37.0147 155.48 36.65C155.9 36.28 156.48 35.79 157.1 35.16C157.437 34.909 157.851 34.785 158.27 34.81C158.754 34.7877 159.229 34.9483 159.6 35.26C159.774 35.4208 159.909 35.6181 159.998 35.8377C160.086 36.0573 160.124 36.2938 160.11 36.53C160.071 37.1336 159.875 37.7164 159.54 38.22C159.091 38.9414 158.511 39.5723 157.83 40.08C156.963 40.7275 155.992 41.2244 154.96 41.55C153.668 41.9654 152.317 42.1648 150.96 42.14C147.527 42.14 144.86 41.1633 142.96 39.21C141.976 38.1338 141.216 36.8717 140.727 35.4978C140.238 34.124 140.028 32.6661 140.11 31.21C140.094 29.7177 140.331 28.2335 140.81 26.82C141.259 25.541 141.975 24.3719 142.91 23.39C143.832 22.4059 144.968 21.6464 146.23 21.17C147.628 20.6392 149.114 20.3779 150.61 20.4C152.483 20.3476 154.335 20.8038 155.97 21.72C157.385 22.515 158.546 23.6936 159.32 25.12C160.037 26.4262 160.418 27.89 160.43 29.38C160.43 30.72 160.05 31.59 159.28 31.99C158.261 32.4361 157.151 32.6381 156.04 32.58" fill="#0F0F0F"/>
<path d="M165.21 20.37H165.79V17.7C165.79 16.84 165.79 16.17 165.86 15.7C165.892 15.2571 166.022 14.8267 166.24 14.44C166.458 14.0705 166.768 13.7638 167.14 13.55C167.538 13.3203 167.991 13.2028 168.45 13.21C169.137 13.2107 169.795 13.4841 170.28 13.97C170.641 14.2967 170.887 14.7318 170.98 15.21C171.091 15.8975 171.138 16.5938 171.12 17.29V20.39H173.12C173.742 20.3502 174.357 20.5386 174.85 20.92C175.042 21.094 175.194 21.3074 175.296 21.5456C175.398 21.7837 175.447 22.0411 175.44 22.3C175.467 22.6067 175.4 22.9143 175.248 23.1822C175.096 23.45 174.867 23.6655 174.59 23.8C173.824 24.1283 172.992 24.2754 172.16 24.23H171.16V34.56C171.15 35.2012 171.18 35.8425 171.25 36.48C171.291 36.886 171.455 37.2699 171.72 37.58C171.886 37.7324 172.082 37.8485 172.296 37.9208C172.509 37.9932 172.735 38.0201 172.96 38C173.388 37.9838 173.813 37.9269 174.23 37.83C174.64 37.734 175.059 37.677 175.48 37.66C175.698 37.664 175.914 37.7121 176.113 37.8015C176.312 37.8908 176.492 38.0196 176.64 38.18C176.81 38.3462 176.944 38.5456 177.033 38.7658C177.123 38.9861 177.166 39.2224 177.16 39.46C177.159 39.8979 177.023 40.3248 176.771 40.6827C176.519 41.0406 176.162 41.312 175.75 41.46C174.483 41.9792 173.118 42.2147 171.75 42.15C170.413 42.2334 169.08 41.9314 167.91 41.28C167.072 40.7457 166.467 39.9129 166.22 38.95C165.92 37.6386 165.785 36.2948 165.82 34.95V24.21H165.12C164.487 24.2545 163.859 24.062 163.36 23.67C163.166 23.4954 163.011 23.2807 162.908 23.0407C162.804 22.8008 162.754 22.5413 162.76 22.28C162.754 22.0173 162.808 21.7567 162.917 21.5177C163.026 21.2787 163.188 21.0675 163.39 20.9C163.926 20.5126 164.58 20.3251 165.24 20.37" fill="#0F0F0F"/>
<path d="M193.61 31.39C192.495 31.7691 191.356 32.0731 190.2 32.3C188.71 32.62 187.67 32.86 187.1 33C186.496 33.1707 185.936 33.471 185.46 33.88C185.2 34.1058 184.994 34.3879 184.859 34.705C184.724 35.0221 184.663 35.3658 184.68 35.71C184.676 36.0993 184.757 36.4848 184.915 36.8403C185.074 37.1958 185.308 37.5129 185.6 37.77C186.258 38.3563 187.12 38.6614 188 38.62C189.015 38.6305 190.017 38.3937 190.92 37.93C191.748 37.5434 192.444 36.9207 192.92 36.14C193.501 34.8908 193.752 33.5138 193.65 32.14L193.61 31.39ZM193.96 39.11C192.818 40.021 191.56 40.7775 190.22 41.36C188.935 41.8828 187.557 42.1412 186.17 42.12C184.919 42.1466 183.68 41.8686 182.56 41.31C181.576 40.8104 180.749 40.0491 180.17 39.11C179.618 38.207 179.327 37.1685 179.33 36.11C179.297 34.7343 179.795 33.3988 180.72 32.38C181.732 31.2998 183.064 30.574 184.52 30.31L187.04 29.78C188.373 29.5133 189.523 29.2633 190.49 29.03C191.49 28.8 192.49 28.53 193.61 28.2C193.635 27.1059 193.339 26.0285 192.76 25.1C192.25 24.45 191.22 24.1 189.64 24.1C188.61 24.0486 187.582 24.2404 186.64 24.66C185.922 25.0721 185.317 25.6563 184.88 26.36C184.572 26.8764 184.238 27.377 183.88 27.86C183.7 28.0061 183.491 28.1134 183.267 28.1753C183.044 28.2373 182.81 28.2525 182.58 28.22C182.008 28.2306 181.454 28.0232 181.03 27.64C180.817 27.4601 180.649 27.2344 180.536 26.9797C180.423 26.7251 180.37 26.4482 180.38 26.17C180.404 25.1717 180.755 24.2089 181.38 23.43C182.202 22.4366 183.276 21.6835 184.49 21.25C186.168 20.6253 187.951 20.3332 189.74 20.39C191.619 20.3108 193.497 20.5925 195.27 21.22C196.492 21.721 197.473 22.6738 198.01 23.88C198.62 25.3937 198.903 27.0193 198.84 28.65C198.84 29.9 198.84 30.96 198.84 31.83C198.84 32.7 198.84 33.68 198.84 34.74C198.851 35.8056 199.019 36.8637 199.34 37.88C199.581 38.5603 199.748 39.2642 199.84 39.98C199.827 40.2693 199.752 40.5523 199.619 40.8096C199.486 41.0669 199.299 41.2922 199.07 41.47C198.591 41.9059 197.967 42.1482 197.32 42.15C196.7 42.1165 196.118 41.8399 195.7 41.38C195.045 40.7046 194.474 39.9525 194 39.14L193.96 39.11Z" fill="#0F0F0F"/>
<path d="M118.29 49.53V55.29H125.6C126.028 55.2447 126.46 55.3282 126.84 55.53C126.94 55.6091 127.02 55.7113 127.073 55.828C127.125 55.9447 127.148 56.0724 127.14 56.2C127.142 56.4418 127.057 56.6762 126.9 56.86C126.74 57.04 126.3 57.14 125.6 57.14H118.29V63.24H126.59C127.034 63.1894 127.484 63.273 127.88 63.48C127.98 63.5591 128.06 63.6613 128.113 63.778C128.165 63.8947 128.188 64.0224 128.18 64.15C128.188 64.2811 128.167 64.4123 128.116 64.5337C128.066 64.655 127.989 64.7632 127.89 64.85C127.49 65.0578 127.038 65.1414 126.59 65.09H117.91C117.455 65.1198 116.998 65.069 116.56 64.94C116.456 64.8976 116.363 64.8338 116.285 64.7528C116.208 64.6718 116.148 64.5755 116.11 64.47C116.032 64.1425 115.995 63.8066 116 63.47V49.88C116 48.79 116.09 48.27 116.28 48.04C116.47 47.81 117.02 47.7 117.91 47.7H126.26C126.704 47.6525 127.153 47.7359 127.55 47.94C127.647 48.0212 127.724 48.1241 127.775 48.2405C127.825 48.3568 127.847 48.4834 127.84 48.61C127.847 48.7409 127.824 48.8717 127.774 48.9928C127.724 49.1139 127.647 49.2223 127.55 49.31C127.154 49.517 126.704 49.6006 126.26 49.55L118.29 49.53Z" fill="#0F0F0F"/>
<path d="M135.19 59.75L131.94 64.25C131.54 64.81 131.15 65.09 130.77 65.09C130.51 65.0943 130.259 64.9974 130.07 64.82C129.981 64.7436 129.909 64.6484 129.861 64.5412C129.812 64.4341 129.788 64.3176 129.79 64.2C129.834 63.8532 129.984 63.5284 130.22 63.27L133.92 58.27L130.66 53.99C130.398 53.7122 130.221 53.3652 130.15 52.99C130.151 52.8753 130.175 52.762 130.222 52.657C130.268 52.5521 130.336 52.4578 130.42 52.38C130.612 52.2001 130.867 52.1031 131.13 52.11C131.33 52.0957 131.528 52.1524 131.69 52.27C131.915 52.4912 132.119 52.7321 132.3 52.99L135.19 56.82L138.05 52.99C138.48 52.4 138.88 52.11 139.26 52.11C139.515 52.1056 139.762 52.1986 139.95 52.37C140.037 52.4382 140.108 52.5246 140.158 52.623C140.208 52.7214 140.236 52.8296 140.24 52.94C140.171 53.3543 139.983 53.7397 139.7 54.05L136.47 58.21L140.07 63.15C140.334 63.4288 140.518 63.7746 140.6 64.15C140.6 64.2697 140.574 64.388 140.524 64.4967C140.474 64.6055 140.401 64.7021 140.31 64.78C140.132 64.9495 139.896 65.0429 139.65 65.04C139.24 65.04 138.83 64.75 138.41 64.15L135.19 59.75Z" fill="#0F0F0F"/>
<path d="M152.08 58.71C152.166 57.3927 151.771 56.0889 150.97 55.04C150.65 54.6333 150.241 54.305 149.775 54.0797C149.309 53.8545 148.798 53.7383 148.28 53.74C147.744 53.7223 147.21 53.8233 146.717 54.036C146.225 54.2486 145.785 54.5676 145.43 54.97C144.644 55.9643 144.255 57.2153 144.34 58.48C144.24 59.827 144.659 61.1612 145.51 62.21C145.867 62.6098 146.304 62.9289 146.794 63.1462C147.284 63.3634 147.814 63.4738 148.35 63.47C148.874 63.4833 149.394 63.3692 149.864 63.1375C150.334 62.9059 150.741 62.5636 151.05 62.14C151.758 61.1408 152.11 59.933 152.05 58.71H152.08ZM144.29 54.27C144.796 53.5862 145.459 53.034 146.223 52.6598C146.987 52.2856 147.83 52.1005 148.68 52.12C149.468 52.076 150.254 52.2274 150.97 52.5606C151.685 52.8938 152.307 53.3986 152.78 54.03C153.757 55.3943 154.256 57.043 154.2 58.72C154.261 60.356 153.764 61.9642 152.79 63.28C152.307 63.8841 151.686 64.3637 150.98 64.6787C150.274 64.9936 149.502 65.1346 148.73 65.09C147.881 65.1127 147.039 64.9278 146.277 64.5514C145.516 64.175 144.858 63.6184 144.36 62.93V68.08C144.41 68.5684 144.32 69.061 144.1 69.5C144.002 69.6056 143.883 69.6889 143.75 69.7441C143.617 69.7993 143.474 69.8252 143.33 69.82C143.055 69.8269 142.787 69.7306 142.58 69.55C142.316 69.1155 142.21 68.6034 142.28 68.1V53.77C142.233 53.3097 142.316 52.8454 142.52 52.43C142.614 52.3224 142.731 52.2383 142.863 52.1844C142.995 52.1306 143.138 52.1085 143.28 52.12C143.95 52.12 144.28 52.59 144.28 53.52L144.29 54.27Z" fill="#0F0F0F"/>
<path d="M155.91 63.39V53.39C155.881 53.0408 155.961 52.6912 156.14 52.39C156.226 52.2978 156.332 52.2265 156.45 52.1815C156.568 52.1364 156.694 52.1188 156.82 52.13C157.047 52.1234 157.268 52.2019 157.44 52.35C157.61 52.49 157.7 52.85 157.7 53.44V54.44C158.088 53.7488 158.596 53.1324 159.2 52.62C159.647 52.3227 160.174 52.1692 160.71 52.18C161.298 52.1769 161.879 52.3177 162.4 52.59C162.92 52.8633 163.18 53.1967 163.18 53.59C163.182 53.7173 163.157 53.8436 163.107 53.9608C163.057 54.0779 162.983 54.1833 162.89 54.27C162.824 54.3509 162.742 54.4174 162.649 54.4656C162.556 54.5137 162.454 54.5424 162.35 54.55C162.099 54.5286 161.852 54.4678 161.62 54.37C161.298 54.2595 160.96 54.2021 160.62 54.2C160.207 54.1817 159.797 54.2846 159.442 54.496C159.087 54.7075 158.801 55.0182 158.62 55.39C158.097 56.6798 157.875 58.0716 157.97 59.46V63.88C157.97 64.68 157.63 65.08 156.97 65.08C156.815 65.0979 156.657 65.075 156.514 65.0137C156.37 64.9523 156.245 64.8545 156.15 64.73C155.959 64.307 155.88 63.8422 155.92 63.38" fill="#0F0F0F"/>
<path d="M166.91 57.57H174.04C174.072 56.5106 173.717 55.4758 173.04 54.66C172.726 54.3293 172.345 54.0691 171.922 53.8967C171.5 53.7243 171.046 53.6436 170.59 53.66C170.137 53.6518 169.686 53.7362 169.267 53.9082C168.847 54.0801 168.467 54.336 168.15 54.66C167.423 55.4645 166.999 56.4969 166.95 57.58L166.91 57.57ZM174.36 59.01H166.91C166.853 60.2408 167.248 61.45 168.02 62.41C168.368 62.7927 168.795 63.0948 169.272 63.2952C169.748 63.4956 170.263 63.5893 170.78 63.57C171.517 63.6228 172.249 63.4255 172.86 63.01C173.419 62.5349 173.895 61.9706 174.27 61.34C174.356 61.1714 174.482 61.0266 174.637 60.9185C174.793 60.8103 174.972 60.7421 175.16 60.72C175.265 60.718 175.369 60.7383 175.466 60.7797C175.562 60.8211 175.649 60.8825 175.72 60.96C175.796 61.0295 175.856 61.1147 175.896 61.2097C175.935 61.3047 175.954 61.4071 175.95 61.51C175.791 62.3875 175.323 63.1789 174.63 63.74C174.101 64.2237 173.478 64.5939 172.801 64.8278C172.123 65.0617 171.405 65.1543 170.69 65.1C169.879 65.1491 169.067 65.0176 168.313 64.7149C167.559 64.4123 166.882 63.9461 166.33 63.35C165.244 62.0086 164.692 60.3135 164.78 58.59C164.692 56.8818 165.245 55.2023 166.33 53.88C166.874 53.2878 167.543 52.8237 168.289 52.5211C169.034 52.2185 169.837 52.0849 170.64 52.13C171.423 52.0763 172.207 52.2077 172.93 52.5135C173.653 52.8192 174.293 53.2908 174.8 53.89C175.687 54.9549 176.178 56.294 176.19 57.68C176.195 58.013 176.093 58.3389 175.9 58.61C175.71 58.87 175.19 59.01 174.34 59.01" fill="#0F0F0F"/>
<path d="M179.99 55.34C179.991 55.6195 180.073 55.8928 180.225 56.127C180.378 56.3612 180.595 56.5463 180.85 56.66C181.81 57.0877 182.817 57.3999 183.85 57.59C184.994 57.7698 186.072 58.2417 186.98 58.96C187.301 59.2352 187.556 59.5778 187.729 59.9632C187.902 60.3487 187.988 60.7676 187.98 61.19C187.99 61.7233 187.877 62.2517 187.652 62.7351C187.427 63.2185 187.094 63.6443 186.68 63.98C185.552 64.7999 184.17 65.1932 182.78 65.09C181.438 65.1929 180.106 64.7858 179.05 63.95C178.696 63.6777 178.402 63.3341 178.188 62.9414C177.975 62.5487 177.846 62.1156 177.81 61.67C177.811 61.5553 177.835 61.442 177.882 61.337C177.928 61.2321 177.996 61.1378 178.08 61.06C178.165 60.978 178.265 60.9137 178.375 60.8707C178.485 60.8278 178.602 60.8072 178.72 60.81C179.12 60.81 179.453 61.08 179.72 61.62C179.975 62.2564 180.427 62.7943 181.01 63.1543C181.593 63.5144 182.277 63.6776 182.96 63.62C183.708 63.6608 184.448 63.4572 185.07 63.04C185.307 62.8878 185.502 62.6794 185.638 62.4333C185.774 62.1872 185.847 61.9112 185.85 61.63C185.847 61.1857 185.679 60.7583 185.38 60.43C184.64 59.8679 183.77 59.5031 182.85 59.37C181.865 59.1467 180.902 58.8389 179.97 58.45C179.432 58.1849 178.96 57.8021 178.59 57.33C178.223 56.8556 178.029 56.2699 178.04 55.67C178.046 55.2043 178.151 54.7452 178.348 54.323C178.544 53.9007 178.828 53.5248 179.18 53.22C180.161 52.4166 181.416 52.0257 182.68 52.13C183.942 52.0218 185.201 52.3773 186.22 53.13C186.545 53.3616 186.816 53.6598 187.016 54.0047C187.216 54.3496 187.34 54.7333 187.38 55.13C187.38 55.7 187.08 55.98 186.49 55.98C186.385 55.9895 186.28 55.9776 186.18 55.9449C186.081 55.9122 185.989 55.8595 185.91 55.79C185.722 55.5686 185.57 55.3188 185.46 55.05C185.203 54.5608 184.804 54.1617 184.314 53.9061C183.824 53.6505 183.268 53.5507 182.72 53.62C182.039 53.5915 181.363 53.7543 180.77 54.09C180.543 54.2152 180.353 54.3991 180.221 54.6225C180.09 54.8459 180.02 55.1006 180.02 55.36" fill="#0F0F0F"/>
<path d="M191.79 55.34C191.791 55.6195 191.873 55.8928 192.025 56.127C192.178 56.3612 192.395 56.5463 192.65 56.66C193.61 57.0877 194.617 57.3999 195.65 57.59C196.794 57.7698 197.872 58.2417 198.78 58.96C199.101 59.2352 199.356 59.5778 199.529 59.9632C199.702 60.3487 199.788 60.7676 199.78 61.19C199.79 61.7233 199.677 62.2517 199.452 62.7351C199.227 63.2185 198.894 63.6443 198.48 63.98C197.352 64.7999 195.97 65.1932 194.58 65.09C193.238 65.1929 191.906 64.7858 190.85 63.95C190.496 63.6777 190.202 63.3341 189.988 62.9414C189.775 62.5487 189.646 62.1156 189.61 61.67C189.611 61.5553 189.635 61.442 189.682 61.337C189.728 61.2321 189.796 61.1378 189.88 61.06C189.965 60.978 190.065 60.9137 190.175 60.8707C190.285 60.8278 190.402 60.8072 190.52 60.81C190.92 60.81 191.253 61.08 191.52 61.62C191.775 62.2564 192.227 62.7943 192.81 63.1543C193.393 63.5144 194.077 63.6776 194.76 63.62C195.508 63.6622 196.249 63.4585 196.87 63.04C197.107 62.8878 197.302 62.6794 197.438 62.4333C197.574 62.1872 197.647 61.9112 197.65 61.63C197.647 61.1857 197.479 60.7583 197.18 60.43C196.44 59.8679 195.57 59.5031 194.65 59.37C193.666 59.1451 192.702 58.8374 191.77 58.45C191.232 58.1849 190.76 57.8021 190.39 57.33C190.023 56.8556 189.829 56.2699 189.84 55.67C189.846 55.2043 189.951 54.7452 190.148 54.323C190.344 53.9007 190.628 53.5248 190.98 53.22C191.961 52.4166 193.216 52.0257 194.48 52.13C195.743 52.019 197.002 52.3748 198.02 53.13C198.345 53.3616 198.616 53.6598 198.816 54.0047C199.016 54.3496 199.14 54.7333 199.18 55.13C199.18 55.7 198.89 55.98 198.29 55.98C198.185 55.9895 198.08 55.9776 197.98 55.9449C197.881 55.9122 197.789 55.8595 197.71 55.79C197.522 55.5686 197.37 55.3188 197.26 55.05C197.005 54.5616 196.607 54.1628 196.119 53.9072C195.631 53.6516 195.077 53.5514 194.53 53.62C193.832 53.5831 193.138 53.7461 192.53 54.09C192.303 54.2152 192.113 54.3991 191.981 54.6225C191.85 54.8459 191.78 55.1006 191.78 55.36" fill="#0F0F0F"/>
<path d="M58.49 10C55.5396 5.89317 51.3674 2.82319 46.5687 1.22816C41.7701 -0.366864 36.5902 -0.405432 31.7684 1.11796C26.9465 2.64135 22.729 5.64886 19.7178 9.7113C16.7066 13.7737 15.0554 18.6835 15 23.74C9.82948 25.8239 5.54568 29.6428 2.884 34.541C0.222326 39.4392 -0.651187 45.1113 0.41342 50.5833C1.47803 56.0554 4.41435 60.9862 8.71829 64.5293C13.0222 68.0723 18.4253 70.0066 24 70H43.49V69.9L58.49 10.08V10Z" fill="#22BFB4"/>
<path d="M84.6 23.5C84.601 20.8956 83.586 18.3936 81.7707 16.5261C79.9555 14.6586 77.4833 13.5729 74.88 13.5H67.91L62.91 33.5H74.6C77.2522 33.5 79.7957 32.4464 81.6711 30.5711C83.5464 28.6957 84.6 26.1522 84.6 23.5Z" fill="#18A3C9"/>
<path d="M90.22 35.98C88.3474 38.325 85.9711 40.2186 83.2671 41.5204C80.5632 42.8221 77.601 43.4987 74.6 43.5H60.43L53.8 70H82C86.0337 69.9941 89.9486 68.6335 93.1165 66.1365C96.2845 63.6395 98.5219 60.1507 99.4698 56.2299C100.418 52.3091 100.021 48.1836 98.3438 44.5151C96.6665 40.8467 93.8055 37.8479 90.22 36" fill="#18A3C9"/>
</svg>
